<?xml version="1.0" encoding="UTF-8" standalone="no"?>
<svg
   xmlns:dc="http://purl.org/dc/elements/1.1/"
   xmlns:cc="http://creativecommons.org/ns#"
   xmlns:rdf="http://www.w3.org/1999/02/22-rdf-syntax-ns#"
   xmlns:svg="http://www.w3.org/2000/svg"
   xmlns="http://www.w3.org/2000/svg"
   xmlns:sodipodi="http://sodipodi.sourceforge.net/DTD/sodipodi-0.dtd"
   xmlns:inkscape="http://www.inkscape.org/namespaces/inkscape"
   version="1.1"
   x="0px"
   y="0px"
   width="88.68"
   height="88.68"
   viewBox="0 0 88.68 88.68"
   enable-background="new 0 0 100 100"
   xml:space="preserve"
   id="svg2"
   inkscape:version="0.48.3.1 r9886"
   sodipodi:docname="automatic.svg"><metadata
   id="metadata14"><rdf:RDF><cc:Work
       rdf:about=""><dc:format>image/svg+xml</dc:format><dc:type
         rdf:resource="http://purl.org/dc/dcmitype/StillImage" /></cc:Work></rdf:RDF></metadata><defs
   id="defs12" /><sodipodi:namedview
   pagecolor="#ffffff"
   bordercolor="#666666"
   borderopacity="1"
   objecttolerance="10"
   gridtolerance="10"
   guidetolerance="10"
   inkscape:pageopacity="0"
   inkscape:pageshadow="2"
   inkscape:window-width="1280"
   inkscape:window-height="958"
   id="namedview10"
   showgrid="false"
   fit-margin-top="0"
   fit-margin-left="0"
   fit-margin-right="0"
   fit-margin-bottom="0"
   inkscape:zoom="6.675088"
   inkscape:cx="40.713523"
   inkscape:cy="32.471769"
   inkscape:window-x="-2"
   inkscape:window-y="43"
   inkscape:window-maximized="1"
   inkscape:current-layer="Your_Icon" />
<g
   id="Captions"
   transform="translate(-5.5097417,8.0440063)">
</g>
<g
   id="Your_Icon"
   transform="translate(-5.5097417,-1.2442607)">
	<path
   d="m 74.457237,60.718471 c -3.165583,5.036618 -7.735757,8.938088 -13.218205,11.278238 l -0.371631,0.150798 c -0.732767,0.305819 -1.479649,0.578521 -2.22424,0.820895 l -0.930566,0.265119 c -0.598701,0.171493 -1.202108,0.331947 -1.797583,0.465104 -0.259839,0.05858 -0.524113,0.101653 -0.787467,0.144336 l -0.317221,0.05912 c -2.533008,0.516149 -5.204246,0.554775 -7.761708,0.3364 -2.757165,-0.273805 -5.440592,-0.920376 -8.12187,-1.992901 -5.621514,-1.727776 -11.8837,-8.130355 -14.616427,-13.161733 4.437571,-2.037176 8.262412,-4.047981 8.320548,-4.967407 0.021,-0.330721 0.07255,-1.104935 -5.88452,-5.277216 -2.769344,-1.944836 -14.36993,-9.617543 -16.235522,-8.822336 -1.9955693,0.921268 -4.6937507,18.086946 -4.9674145,22.979027 -0.1280264,2.341734 0.129558,2.696112 0.4271485,2.871465 0.70129,0.410923 4.953798,-1.132115 8.920164,-2.729289 4.555149,7.24851 9.88626,13.284861 15.749389,16.413929 l 1.283848,0.703962 c 0.992862,0.508399 2.009867,0.958677 3.035981,1.384418 l 0.292311,0.122164 c 3.407494,1.360857 7.001875,2.234408 10.668453,2.583661 l 0.317556,0.03857 c 1.048578,0.0857 2.100533,0.123219 3.162125,0.134889 l 0.784272,0.01139 c 0.897891,-0.0077 1.792869,-0.07067 2.878031,-0.15927 0.363897,-0.02358 0.727809,-0.05477 1.0962,-0.09331 0.776851,-0.08763 1.553656,-0.218726 2.337036,-0.354798 l 0.361212,-0.06048 c 0.396426,-0.07223 0.791403,-0.142752 1.426917,-0.271235 0.140929,-0.01876 0.275177,-0.04555 0.401025,-0.07419 0.574724,-0.130835 1.140987,-0.299371 1.70633,-0.467515 l 1.180452,-0.336848 c 1.253577,-0.397367 2.487534,-0.833114 3.684345,-1.343254 7.386012,-3.148282 13.564913,-8.432273 17.859649,-15.298139 1.494353,-2.382776 0.767305,-5.524272 -1.618005,-6.999066 -2.303481,-1.420534 -5.602193,-0.672129 -7.040613,1.645502 z"
   id="path6"
   inkscape:connector-curvature="0"
   style="fill:#2d75c0;fill-opacity:1"
   sodipodi:nodetypes="cccccccccccccccccccccccccccccccccsccc" />
	<path
   d="m 93.803056,26.140602 c -0.667783,-0.556739 -4.392427,0.64607 -8.646984,2.296513 C 80.105284,20.401153 75.049134,14.525408 68.259583,11.022872 l -0.284485,-0.16246 C 62.427611,8.0060727 56.457179,6.5592987 50.217641,6.5469147 l -0.516288,-0.005 c -0.977607,0.01449 -1.956223,0.07508 -2.933829,0.155878 l -0.37192,0.03026 c -0.224566,0.01637 -0.458061,0.03219 -0.684226,0.06011 -0.840687,0.09854 -1.67501,0.232407 -2.516858,0.386877 l -0.387226,0.06831 c -0.334686,0.05896 -0.671075,0.116465 -1.008278,0.187365 l -0.675418,0.121577 c -0.388975,0.08971 -0.764739,0.205306 -1.148255,0.323123 l -1.898848,0.546315 c -0.998956,0.321447 -1.96413,0.691543 -3.158771,1.165972 l -0.380439,0.155639 C 27.132468,12.906161 20.961982,18.184391 16.697693,24.991622 c -0.727082,1.155647 -0.958895,2.521963 -0.653715,3.847447 0.30794,1.324307 1.111564,2.447113 2.271298,3.165931 2.29757,1.421967 5.598016,0.659779 7.043388,-1.65429 3.157967,-5.036632 7.723798,-8.93299 13.44844,-11.373114 l 0.0055,-0.0024 c 0.794401,-0.33209 1.590567,-0.626886 2.390066,-0.880708 l 0.746899,-0.214007 c 0.671888,-0.196166 1.33809,-0.372516 2.008169,-0.516819 l 0.892278,-0.158574 c 0.666369,-0.127503 1.33218,-0.238463 1.996484,-0.317256 l 0.643629,-0.04824 c 0.770774,-0.06874 1.542815,-0.114097 2.54535,-0.118562 4.587989,-0.0011 9.170251,1.109034 13.327691,3.244891 5.346505,2.762817 9.563882,7.074413 12.305794,12.441049 -4.090099,1.819495 -8.601608,3.996892 -8.805078,4.838037 -0.07787,0.337568 7.3e-5,0.765256 1.773002,2.290188 3.725984,3.197018 17.97858,13.138528 20.025004,12.331465 l 0.02024,-0.0086 c 1.849953,-0.788541 4.290332,-14.185303 4.843659,-17.730154 1.132471,-7.263763 0.535493,-7.769153 0.277247,-7.987366 z"
   id="path8"
   inkscape:connector-curvature="0"
   style="fill:#c21e1e;fill-opacity:1"
   sodipodi:nodetypes="ccccccccccccccccccccccccccccccccccccccc" />
</g>
</svg>