<?xml version="1.0" encoding="UTF-8" standalone="no"?>
<!-- Created with Inkscape (http://www.inkscape.org/) -->

<svg
   xmlns:dc="http://purl.org/dc/elements/1.1/"
   xmlns:cc="http://creativecommons.org/ns#"
   xmlns:rdf="http://www.w3.org/1999/02/22-rdf-syntax-ns#"
   xmlns:svg="http://www.w3.org/2000/svg"
   xmlns="http://www.w3.org/2000/svg"
   xmlns:xlink="http://www.w3.org/1999/xlink"
   xmlns:sodipodi="http://sodipodi.sourceforge.net/DTD/sodipodi-0.dtd"
   xmlns:inkscape="http://www.inkscape.org/namespaces/inkscape"
   width="800"
   height="480"
   viewBox="0 0 211.66667 127"
   version="1.1"
   id="svg8"
   inkscape:version="0.92.5 (2060ec1f9f, 2020-04-08)"
   sodipodi:docname="background-day.svg">
  <defs
     id="defs2">
    <linearGradient
       id="linearGradient4027"
       inkscape:collect="always">
      <stop
         id="stop4023"
         offset="0"
         style="stop-color:#3b78b0;stop-opacity:1" />
      <stop
         id="stop4025"
         offset="1"
         style="stop-color:#0a4488;stop-opacity:1" />
    </linearGradient>
    <marker
       inkscape:stockid="Arrow2Send"
       orient="auto"
       refY="0.0"
       refX="0.0"
       id="Arrow2Send"
       style="overflow:visible;"
       inkscape:isstock="true">
      <path
         id="path2921"
         style="fill-rule:evenodd;stroke-width:0.625;stroke-linejoin:round;stroke:#e4943d;stroke-opacity:1;fill:#e4943d;fill-opacity:1"
         d="M 8.7185878,4.0337352 L -2.2072895,0.016013256 L 8.7185884,-4.0017078 C 6.9730900,-1.6296469 6.9831476,1.6157441 8.7185878,4.0337352 z "
         transform="scale(0.3) rotate(180) translate(-2.3,0)" />
    </marker>
    <marker
       inkscape:stockid="Arrow1Send"
       orient="auto"
       refY="0.0"
       refX="0.0"
       id="marker3162"
       style="overflow:visible;"
       inkscape:isstock="true">
      <path
         id="path3160"
         d="M 0.0,0.0 L 5.0,-5.0 L -12.5,0.0 L 5.0,5.0 L 0.0,0.0 z "
         style="fill-rule:evenodd;stroke:#000000;stroke-width:1pt;stroke-opacity:1;fill:#000000;fill-opacity:1"
         transform="scale(0.2) rotate(180) translate(6,0)" />
    </marker>
    <marker
       inkscape:stockid="Arrow1Send"
       orient="auto"
       refY="0.0"
       refX="0.0"
       id="Arrow1Send"
       style="overflow:visible;"
       inkscape:isstock="true">
      <path
         id="path2903"
         d="M 0.0,0.0 L 5.0,-5.0 L -12.5,0.0 L 5.0,5.0 L 0.0,0.0 z "
         style="fill-rule:evenodd;stroke:#000000;stroke-width:1pt;stroke-opacity:1;fill:#000000;fill-opacity:1"
         transform="scale(0.2) rotate(180) translate(6,0)" />
    </marker>
    <marker
       inkscape:stockid="Arrow1Lend"
       orient="auto"
       refY="0.0"
       refX="0.0"
       id="Arrow1Lend"
       style="overflow:visible;"
       inkscape:isstock="true">
      <path
         id="path2891"
         d="M 0.0,0.0 L 5.0,-5.0 L -12.5,0.0 L 5.0,5.0 L 0.0,0.0 z "
         style="fill-rule:evenodd;stroke:#000000;stroke-width:1pt;stroke-opacity:1;fill:#000000;fill-opacity:1"
         transform="scale(0.8) rotate(180) translate(12.5,0)" />
    </marker>
    <linearGradient
       id="linearGradient29186">
      <stop
         id="stop29187"
         offset="0"
         stop-color="#ffffff" />
      <stop
         id="stop29188"
         offset="1"
         stop-opacity="0"
         stop-color="#ffffff" />
    </linearGradient>
    <linearGradient
       id="linearGradient17250">
      <stop
         id="stop17251"
         offset="0"
         stop-color="#dc0000" />
      <stop
         id="stop17252"
         offset="1"
         stop-color="#ffb200" />
    </linearGradient>
    <linearGradient
       id="linearGradient26051">
      <stop
         id="stop26052"
         offset="0"
         stop-opacity="0.449275"
         stop-color="#ffffff" />
      <stop
         id="stop26053"
         offset="1"
         stop-opacity="0"
         stop-color="#ffffff" />
    </linearGradient>
    <linearGradient
       gradientUnits="userSpaceOnUse"
       gradientTransform="scale(0.67852675,1.4737812)"
       xlink:href="#linearGradient29186"
       id="linearGradient4463"
       x1="176.91841"
       y1="55.289661"
       x2="405.02551"
       y2="301.05521" />
    <linearGradient
       gradientUnits="userSpaceOnUse"
       gradientTransform="scale(0.56550949,1.7683169)"
       xlink:href="#linearGradient26051"
       id="linearGradient4466"
       x1="301.31958"
       y1="49.213818"
       x2="363.36502"
       y2="49.213818" />
    <linearGradient
       gradientUnits="userSpaceOnUse"
       gradientTransform="scale(0.68602711,1.4576683)"
       xlink:href="#linearGradient17250"
       id="linearGradient4470"
       x1="325.20172"
       y1="379.51053"
       x2="378.4357"
       y2="197.55136" />
    <linearGradient
       gradientUnits="userSpaceOnUse"
       gradientTransform="scale(0.62475875,1.6006178)"
       xlink:href="#linearGradient26051"
       id="linearGradient4473"
       x1="604.6712"
       y1="208.66286"
       x2="663.42261"
       y2="208.66286" />
    <linearGradient
       gradientUnits="userSpaceOnUse"
       gradientTransform="scale(0.76167539,1.3128952)"
       xlink:href="#linearGradient29186"
       id="linearGradient4476"
       x1="704.58331"
       y1="215.54375"
       x2="401.21863"
       y2="368.72275" />
    <linearGradient
       gradientUnits="userSpaceOnUse"
       gradientTransform="scale(0.79717637,1.2544276)"
       xlink:href="#linearGradient17250"
       id="linearGradient4479"
       x1="381.65662"
       y1="380.50354"
       x2="491.27167"
       y2="238.57043" />
    <linearGradient
       gradientUnits="userSpaceOnUse"
       gradientTransform="scale(0.80266507,1.2458497)"
       xlink:href="#linearGradient29186"
       id="linearGradient4498"
       x1="-111.42184"
       y1="37.318504"
       x2="384.97592"
       y2="420.59518" />
    <linearGradient
       gradientUnits="userSpaceOnUse"
       gradientTransform="scale(0.61243685,1.6328214)"
       xlink:href="#linearGradient26051"
       id="linearGradient4501"
       x1="520.71631"
       y1="104.4592"
       x2="573.92993"
       y2="104.4592" />
    <linearGradient
       gradientUnits="userSpaceOnUse"
       gradientTransform="scale(0.61545471,1.6248149)"
       xlink:href="#linearGradient29186"
       id="linearGradient4504"
       x1="26.867113"
       y1="107.58266"
       x2="225.1524"
       y2="321.83118" />
    <linearGradient
       gradientUnits="userSpaceOnUse"
       gradientTransform="scale(0.60479858,1.653443)"
       xlink:href="#linearGradient17250"
       id="linearGradient4512"
       x1="327.27966"
       y1="285.51208"
       x2="277.42697"
       y2="178.95242" />
    <linearGradient
       gradientUnits="userSpaceOnUse"
       gradientTransform="scale(0.80688829,1.2393289)"
       xlink:href="#linearGradient17250"
       id="linearGradient4515"
       x1="189.62608"
       y1="392.98093"
       x2="287.08307"
       y2="117.96692" />
    <linearGradient
       id="linearGradient3523">
      <stop
         style="stop-color:#ffffff;stop-opacity:1;"
         offset="0"
         id="stop3525" />
      <stop
         id="stop3527"
         offset="0.13376631"
         style="stop-color:#ffffff;stop-opacity:0.49803922;" />
      <stop
         style="stop-color:#ffffff;stop-opacity:0;"
         offset="1"
         id="stop3529" />
    </linearGradient>
    <linearGradient
       id="linearGradient3242">
      <stop
         id="stop3244"
         offset="0"
         style="stop-color:#bdbdbd;stop-opacity:1;" />
      <stop
         id="stop3246"
         offset="1"
         style="stop-color:#383838;stop-opacity:1" />
    </linearGradient>
    <linearGradient
       id="linearGradient3258">
      <stop
         id="stop3260"
         offset="0"
         style="stop-color:#a8a8a8;stop-opacity:1" />
      <stop
         id="stop3262"
         offset="1"
         style="stop-color:#545454;stop-opacity:1" />
    </linearGradient>
    <linearGradient
       id="linearGradient3274">
      <stop
         id="stop3276"
         offset="0"
         style="stop-color:#b2b2b2;stop-opacity:1" />
      <stop
         id="stop3278"
         offset="1"
         style="stop-color:#5d5d5d;stop-opacity:1;" />
    </linearGradient>
    <linearGradient
       id="linearGradient3296">
      <stop
         id="stop3298"
         offset="0"
         style="stop-color:#898989;stop-opacity:1;" />
      <stop
         style="stop-color:#757575;stop-opacity:1;"
         offset="0.5"
         id="stop3304" />
      <stop
         id="stop3306"
         offset="0.75"
         style="stop-color:#6b6b6b;stop-opacity:1;" />
      <stop
         style="stop-color:#666666;stop-opacity:1;"
         offset="0.95670182"
         id="stop3308" />
      <stop
         id="stop3300"
         offset="1"
         style="stop-color:#000000;stop-opacity:1;" />
    </linearGradient>
    <linearGradient
       id="linearGradient3234">
      <stop
         id="stop3236"
         offset="0"
         style="stop-color:#bfbfbf;stop-opacity:1;" />
      <stop
         style="stop-color:#8d8d8d;stop-opacity:1;"
         offset="0.5"
         id="stop3290" />
      <stop
         id="stop3292"
         offset="0.75"
         style="stop-color:#7f7f7f;stop-opacity:1;" />
      <stop
         style="stop-color:#787878;stop-opacity:1;"
         offset="0.9644075"
         id="stop3294" />
      <stop
         id="stop3238"
         offset="1"
         style="stop-color:#000000;stop-opacity:1;" />
    </linearGradient>
    <linearGradient
       id="linearGradient3250">
      <stop
         id="stop3252"
         offset="0"
         style="stop-color:#e4e4e4;stop-opacity:1;" />
      <stop
         style="stop-color:#9e9e9e;stop-opacity:1;"
         offset="0.59043187"
         id="stop3286" />
      <stop
         id="stop3288"
         offset="0.97142977"
         style="stop-color:#8e8e8e;stop-opacity:1;" />
      <stop
         id="stop3254"
         offset="1"
         style="stop-color:#000000;stop-opacity:1;" />
    </linearGradient>
    <linearGradient
       id="linearGradient3266">
      <stop
         id="stop3268"
         offset="0"
         style="stop-color:#ffffff;stop-opacity:1;" />
      <stop
         style="stop-color:#c0c0c0;stop-opacity:1;"
         offset="0.97402596"
         id="stop3284" />
      <stop
         id="stop3270"
         offset="1"
         style="stop-color:#000000;stop-opacity:1;" />
    </linearGradient>
    <linearGradient
       id="linearGradient3451">
      <stop
         id="stop3453"
         offset="0"
         style="stop-color:#ffffff;stop-opacity:1;" />
      <stop
         style="stop-color:#7f7f7f;stop-opacity:1;"
         offset="0.84415585"
         id="stop3459" />
      <stop
         id="stop3455"
         offset="1"
         style="stop-color:#000000;stop-opacity:1;" />
    </linearGradient>
    <linearGradient
       id="linearGradient4872">
      <stop
         id="stop4874"
         offset="0"
         style="stop-color:#37414d;stop-opacity:1;" />
      <stop
         id="stop4876"
         offset="1"
         style="stop-color:#737373;stop-opacity:0;" />
    </linearGradient>
    <linearGradient
       id="linearGradient4803">
      <stop
         style="stop-color:#f1f0ef;stop-opacity:0.92363638;"
         offset="0"
         id="stop4805" />
      <stop
         style="stop-color:#b0b5bc;stop-opacity:1"
         offset="1"
         id="stop4807" />
    </linearGradient>
    <linearGradient
       id="linearGradient3490">
      <stop
         id="stop3492"
         offset="0"
         style="stop-color:#d7d7d7;stop-opacity:1;" />
      <stop
         id="stop3494"
         offset="1"
         style="stop-color:#d9d8d4;stop-opacity:0;" />
    </linearGradient>
    <linearGradient
       id="linearGradient3482">
      <stop
         id="stop3484"
         offset="0"
         style="stop-color:#ffffff;stop-opacity:1;" />
      <stop
         id="stop3486"
         offset="1"
         style="stop-color:#e4e1dc;stop-opacity:0;" />
    </linearGradient>
    <linearGradient
       id="linearGradient3450">
      <stop
         id="stop3452"
         offset="0"
         style="stop-color:#f1f0ee;stop-opacity:1;" />
      <stop
         id="stop3454"
         offset="1"
         style="stop-color:#c6c6c6;stop-opacity:1;" />
    </linearGradient>
    <linearGradient
       id="linearGradient3434">
      <stop
         id="stop3436"
         offset="0"
         style="stop-color:#f3f1ef;stop-opacity:1;" />
      <stop
         id="stop3438"
         offset="1"
         style="stop-color:#b0b5bc;stop-opacity:1" />
    </linearGradient>
    <linearGradient
       id="linearGradient4518">
      <stop
         id="stop4520"
         offset="0"
         style="stop-color:#4e4e4e;stop-opacity:1;" />
      <stop
         id="stop4522"
         offset="1"
         style="stop-color:#1b1b1b;stop-opacity:0.38039216;" />
    </linearGradient>
    <linearGradient
       id="linearGradient3175">
      <stop
         style="stop-color:#ffffff;stop-opacity:1;"
         offset="0"
         id="stop3177" />
      <stop
         style="stop-color:#bebebe;stop-opacity:1;"
         offset="1"
         id="stop3179" />
    </linearGradient>
    <clipPath
       id="clipPath4783"
       clipPathUnits="userSpaceOnUse">
      <path
         sodipodi:nodetypes="cccccccccccccccccccccccccccccccccccccccccscccccccccccccccccccccccccccccccccccccccccccccccccscccccccsccccccsccccccccccccccccccccccccccccccccccccccccccccccccccccccsccccccccccccccccccccccccccccccccccccccccccccccccccccccccccccccccsccccccccccccccccccccccccccccccccccccccccccccccccccccccccccccccccsccccccccccccccccccccccccccccccccccccccccccccccccccccccccccccccccccccccccccccccccccccccccccccccccccccccccccccccccccccccccccccccccccccccccccccccccccccccccccccccccccccccscccccccccccccccsssccsccccc"
         id="path4785"
         d="M -1573.0863,664.72614 L -1576.4301,665.60114 L -1579.9301,666.91364 L -1582.1175,667.06989 L -1584.7425,667.19489 L -1586.7738,667.78864 L -1589.5238,669.97614 L -1592.4301,670.69489 L -1595.4925,671.56989 L -1596.5238,672.56989 L -1599.9925,672.72614 L -1602.7738,673.88239 L -1603.7738,676.22614 L -1605.5238,677.53864 L -1607.4301,676.50739 L -1611.0551,677.44489 L -1614.2738,678.19489 L -1615.4301,677.22614 L -1616.6488,674.91364 L -1617.4613,673.88239 L -1621.0238,674.85114 L -1623.1175,675.78864 L -1625.6801,676.94489 L -1628.5863,677.22614 L -1631.9925,679.85114 L -1633.2425,681.53864 L -1634.3363,683.63239 L -1635.2738,684.44489 L -1637.6801,684.78864 L -1640.1488,685.22614 L -1642.8988,685.81989 L -1644.0863,686.53864 L -1644.9613,688.00739 L -1648.8675,688.28864 L -1649.7425,691.35114 L -1651.4925,691.91364 L -1654.3988,691.63239 L -1656.4301,693.81989 L -1658.6175,695.13239 L -1660.3675,696.13239 L -1662.3988,695.69489 C -1662.3988,695.69489 -1664.8806,695.27786 -1665.8988,695.13239 C -1666.917,694.98694 -1667.9301,696.72611 -1667.9301,696.72614 L -1669.8363,697.75739 L -1671.8675,699.47614 L -1672.3051,701.97614 L -1675.2113,703.85114 L -1676.9613,704.72614 L -1679.1175,704.72614 L -1679.8675,703.56989 L -1684.2113,702.69489 L -1685.5238,700.35114 L -1686.6801,699.35114 L -1690.8988,698.31989 L -1691.0551,697.31989 L -1693.2425,696.44489 L -1694.3988,697.75739 L -1696.8675,699.19489 L -1699.3363,700.35114 L -1701.3988,701.66364 L -1702.6801,702.41364 L -1703.1175,704.72614 L -1705.0238,707.35114 L -1706.8988,708.35114 L -1707.0551,709.81989 L -1710.1175,713.16364 L -1710.3988,714.91364 L -1713.6175,716.66364 L -1716.8051,717.66364 L -1718.8363,719.69489 L -1720.3051,722.91364 L -1719.9925,726.25739 L -1720.3051,729.31989 L -1722.6175,727.85114 L -1723.6488,725.22614 L -1725.6801,722.91364 L -1727.9925,720.13239 L -1730.3363,718.10114 L -1731.9301,717.38239 L -1735.4301,716.66364 L -1740.2113,716.06989 L -1742.6801,717.53864 L -1750.5551,718.53864 L -1754.1801,719.41364 L -1756.5238,720.28864 L -1761.8988,720.88239 L -1765.3988,720.00739 L -1772.0863,721.60114 L -1773.9613,722.03864 L -1776.7425,720.88239 L -1778.6175,719.13239 C -1778.6175,719.13239 -1780.5164,718.1227 -1781.6801,718.41364 C -1782.8437,718.70455 -1786.1801,718.53861 -1786.1801,718.53864 L -1790.8363,718.69489 L -1792.1488,719.85114 L -1794.6175,722.31989 L -1797.0863,724.94489 L -1797.2425,726.97614 L -1798.2738,728.72614 C -1798.2738,728.72614 -1799.5766,732.64435 -1799.8675,733.22614 C -1800.1584,733.80796 -1800.43,735.2574 -1800.4301,735.25739 L -1801.0238,738.31989 L -1801.8988,745.44489 L -1803.3363,748.78864 L -1804.6488,750.25739 L -1804.6488,754.03864 C -1804.6488,754.03864 -1802.9085,755.76931 -1802.6175,756.35114 C -1802.3266,756.93296 -1802.6176,758.97614 -1802.6175,758.97614 L -1803.4925,763.47614 L -1803.4925,765.97614 L -1801.1488,769.25739 L -1801.2113,768.60114 L -1801.2113,766.94489 L -1800.8051,758.72614 L -1798.7425,755.41364 L -1797.0863,748.44489 L -1794.2113,745.13239 L -1787.2113,744.72614 L -1778.9925,743.91364 L -1776.1175,746.78864 L -1770.7738,749.25739 L -1764.5863,754.19489 L -1756.3675,752.53864 L -1751.8363,759.53864 L -1749.3675,764.06989 L -1743.6175,769.00739 L -1742.8051,776.00739 L -1738.2738,779.69489 L -1734.1488,780.10114 L -1728.8051,780.94489 L -1720.9925,785.44489 L -1714.8051,789.16364 L -1706.1801,794.50739 L -1702.0551,798.63239 L -1692.5863,799.03864 L -1683.1488,803.16364 L -1665.4613,811.38239 L -1655.5863,808.50739 L -1653.1175,805.63239 L -1653.9301,794.91364 L -1649.8051,787.10114 L -1653.1175,782.56989 L -1653.9301,775.16364 L -1645.2738,769.41364 L -1634.9925,765.72614 L -1627.5863,763.66364 L -1620.1801,766.13239 L -1613.6175,767.75739 L -1605.8051,768.19489 L -1601.2738,769.41364 L -1592.6175,763.66364 L -1583.5863,764.88239 L -1575.7738,766.53864 L -1572.0551,771.47614 L -1565.8988,776.41364 L -1561.7738,787.50739 L -1559.3051,799.44489 L -1556.8363,806.85114 L -1550.6801,806.44489 L -1545.7425,798.63239 L -1537.8988,794.10114 C -1537.8988,794.10114 -1531.7371,795.75192 -1529.6801,793.69489 C -1527.623,791.63784 -1522.6801,790.81988 -1522.6801,790.81989 L -1514.8675,792.44489 L -1507.4613,785.88239 L -1504.1801,781.35114 L -1496.3675,780.53864 L -1490.5863,782.97614 L -1483.1801,782.97614 L -1476.2113,781.35114 L -1471.6801,776.00739 L -1467.9613,772.69489 L -1455.6175,769.81989 L -1452.7425,768.19489 L -1439.5863,768.19489 L -1423.9613,769.81989 L -1415.3051,772.28864 L -1410.3675,782.56989 L -1409.1488,785.44489 L -1402.5551,793.69489 L -1398.4301,796.56989 L -1395.5551,799.44489 L -1391.4613,796.97614 L -1386.9301,795.31989 L -1380.3363,793.28864 L -1373.3363,793.28864 L -1364.3051,794.50739 L -1351.5551,799.85114 L -1345.7738,806.03864 L -1338.8051,818.78864 L -1340.0238,827.00739 L -1336.7425,830.72614 L -1332.2113,835.22614 L -1328.9301,842.22614 L -1324.8051,844.28864 L -1319.0551,848.00739 L -1314.9301,848.00739 L -1305.4613,851.28864 L -1300.1175,857.88239 L -1290.6488,864.85114 L -1286.1175,863.63239 L -1279.1488,862.81989 L -1273.3675,870.19489 L -1270.4925,881.72614 L -1264.7425,885.44489 L -1260.2113,886.25739 L -1255.2738,891.19489 L -1252.3988,896.94489 L -1249.9301,906.81989 L -1245.8051,913.81989 L -1245.8051,919.56989 L -1243.3363,925.35114 L -1246.5238,953.41364 L -1244.8675,953.31989 L -1237.0551,952.91364 L -1232.9301,954.97614 L -1208.6488,953.53864 L -1205.4613,953.63239 L -1201.9613,953.72614 L -1197.2425,952.69489 L -1192.8051,952.28864 L -1190.2425,951.97614 L -1187.7738,950.85114 L -1182.6488,948.60114 L -1177.7113,949.10114 L -1173.1801,948.91364 C -1173.1801,948.91364 -1168.1318,948.89148 -1167.6175,948.78864 C -1167.1033,948.68578 -1166.5863,947.47615 -1166.5863,947.47614 L -1164.1175,946.00739 L -1160.2113,945.41364 L -1155.8051,942.00739 L -1155.9925,940.78864 L -1155.3675,939.03864 L -1153.8363,937.60114 L -1154.5551,934.81989 L -1154.3363,932.22614 L -1155.4925,931.22614 L -1155.8051,927.60114 L -1155.8988,926.47614 L -1157.6488,924.72614 L -1160.5238,922.88239 L -1162.9925,922.06989 L -1164.8363,922.16364 L -1166.2738,921.22614 L -1165.1488,919.28864 L -1166.0863,917.22614 L -1167.3988,915.88239 L -1167.1175,914.22614 L -1167.6175,911.75739 L -1167.7113,910.44489 L -1168.5551,909.72614 L -1169.7738,910.13239 L -1171.7425,909.91364 L -1171.7425,912.06989 L -1172.9613,912.38239 L -1174.3988,913.22614 L -1176.0551,912.69489 L -1176.2425,911.75739 L -1177.7113,912.19489 L -1178.5238,910.94489 L -1177.8051,910.03864 L -1176.7738,909.19489 L -1176.2425,907.97614 L -1177.3988,907.56989 L -1178.4301,906.85114 L -1179.0238,905.81989 L -1179.3363,904.47614 L -1180.2738,901.78864 L -1180.3675,899.53864 L -1182.0238,897.97614 L -1183.7738,897.56989 L -1186.3363,897.78864 L -1188.1801,898.72614 L -1191.8988,899.31989 L -1192.5238,897.88239 L -1194.8675,896.85114 L -1193.2425,896.03864 L -1190.4613,893.56989 L -1191.0551,892.31989 L -1191.0551,890.16364 L -1191.0551,888.72614 L -1192.3988,887.50739 L -1192.3051,886.06989 L -1193.3363,885.53864 L -1194.1488,884.63239 L -1191.1801,881.31989 L -1190.1488,878.75739 L -1189.9301,876.69489 L -1191.1801,875.35114 L -1191.7738,874.22614 L -1192.9301,874.53864 C -1192.9301,874.53864 -1194.6749,873.61934 -1195.0863,873.41364 C -1195.4977,873.20793 -1197.43,873.19486 -1197.4301,873.19489 L -1197.6488,871.35114 L -1197.7425,869.81989 L -1195.9925,869.19489 L -1194.4613,868.25739 L -1194.8675,866.72614 L -1195.1801,865.69489 L -1196.2113,865.28864 L -1195.8051,864.35114 L -1194.3675,863.22614 L -1194.9613,862.10114 L -1194.9613,859.72614 L -1195.4925,857.56989 L -1196.1175,856.35114 L -1196.4301,853.88239 L -1196.3051,852.00739 L -1197.0238,850.25739 L -1197.6488,845.53864 L -1199.7113,844.41364 L -1200.7425,844.10114 L -1199.6175,841.81989 L -1200.0238,840.69489 L -1202.4925,841.53864 L -1202.8988,838.94489 L -1205.3675,839.35114 L -1206.1801,838.44489 L -1205.3675,837.10114 L -1203.3051,837.81989 L -1202.1801,836.38239 L -1201.9613,834.94489 L -1202.3675,832.69489 L -1202.1801,831.03864 L -1201.8675,828.75739 L -1203.8363,827.13239 L -1204.3363,825.47614 L -1205.7738,823.63239 L -1206.5863,821.47614 L -1206.8988,819.63239 L -1210.1175,816.22614 L -1211.0551,815.06989 L -1212.8675,814.97614 L -1215.6488,813.88239 L -1217.3051,813.75739 L -1221.0238,813.00739 L -1223.9925,811.56989 L -1226.6801,811.35114 L -1232.8051,810.41364 L -1241.2425,809.66364 L -1241.6175,808.44489 L -1244.4301,808.56989 L -1247.0551,807.85114 L -1248.5238,807.19489 L -1250.5551,805.81989 L -1251.7738,804.66364 L -1251.2113,803.25739 L -1251.5551,801.53864 L -1253.2425,801.31989 L -1255.7113,801.81989 L -1257.2425,801.97614 L -1255.8675,800.66364 L -1254.8363,799.13239 L -1255.3363,798.69489 L -1256.8051,797.60114 L -1256.4301,797.10114 L -1254.9925,796.13239 L -1254.0551,794.69489 L -1255.4301,793.53864 L -1254.8363,792.28864 L -1254.3363,789.75739 L -1255.8675,787.41364 L -1257.9613,786.31989 L -1261.2425,785.97614 L -1265.2425,785.53864 L -1267.2113,784.50739 L -1267.7113,782.91364 L -1269.9613,782.10114 L -1272.0863,781.38239 L -1273.6175,780.00739 L -1274.6175,779.06989 L -1276.6488,779.25739 L -1278.8363,779.25739 L -1281.8363,777.22614 L -1282.7738,775.85114 L -1290.4613,774.97614 L -1292.5238,774.10114 L -1295.8675,774.41364 L -1297.8988,775.69489 L -1298.6175,775.25739 L -1300.9613,774.97614 L -1302.9925,774.25739 L -1304.1488,772.94489 L -1308.3675,773.22614 L -1308.9613,774.85114 L -1311.2738,775.41364 L -1312.8675,775.13239 L -1312.7425,777.60114 L -1313.3051,778.91364 L -1315.2113,777.88239 L -1319.8675,778.31989 L -1322.0551,779.63239 L -1325.2425,780.06989 L -1327.9925,779.78864 L -1329.0238,777.75739 L -1333.9613,779.19489 L -1337.1801,780.94489 L -1341.8363,785.16364 L -1343.8675,786.19489 L -1345.8988,785.44489 L -1348.2113,784.88239 L -1351.1175,786.03864 L -1352.8675,786.03864 L -1357.5238,787.78864 L -1366.8363,786.63239 L -1368.5863,785.44489 L -1371.4925,787.19489 L -1371.4925,790.69489 L -1376.7425,788.94489 L -1383.1175,787.19489 L -1387.2113,784.88239 L -1387.2113,780.22614 L -1389.5238,773.81989 L -1391.2738,769.75739 L -1395.9301,765.66364 L -1398.8363,761.60114 L -1399.4301,759.25739 L -1404.0863,756.35114 L -1409.3051,753.44489 L -1414.5551,749.97614 L -1417.4613,747.06989 L -1423.2738,744.72614 L -1430.2738,740.66364 L -1436.0863,737.16364 L -1440.1488,733.66364 L -1445.9613,730.19489 L -1452.3675,734.85114 L -1462.8363,734.25739 L -1469.2425,734.25739 L -1475.6488,736.56989 L -1480.8675,737.16364 L -1487.8675,741.22614 L -1491.9301,742.97614 L -1493.6801,741.22614 L -1500.0863,738.91364 L -1505.3051,741.22614 L -1512.8675,747.63239 L -1515.0551,748.22614 L -1517.0863,748.94489 L -1521.6175,747.78864 L -1524.2113,747.78864 L -1527.4301,746.31989 L -1527.9925,744.72614 L -1528.8675,737.16364 L -1528.5863,733.53864 L -1528.3051,728.28864 L -1527.2738,725.66364 L -1526.8363,719.85114 L -1527.4301,716.66364 L -1527.1175,712.44489 L -1527.5551,707.63239 L -1527.7113,703.85114 L -1529.6175,701.10114 L -1532.2113,695.69489 L -1534.5551,693.22614 L -1538.1801,689.75739 L -1540.0863,689.00739 L -1543.1175,688.44489 C -1543.1175,688.44489 -1545.1522,686.97614 -1546.4613,686.97614 C -1547.7704,686.97614 -1548.5238,687.1324 -1548.5238,687.13239 L -1548.9613,684.78864 L -1548.6488,681.75739 L -1550.6801,680.72614 L -1552.5863,679.41364 L -1553.7425,677.53864 L -1555.7738,675.47614 L -1559.8675,674.47614 L -1561.4613,673.44489 L -1563.3363,672.28864 L -1565.8363,670.53864 L -1569.3051,667.47614 L -1570.7738,665.44489 L -1573.0863,664.72614 z M -1799.0863,771.22614 C -1798.0681,772.15341 -1796.9601,773.175 -1796.5238,773.53864 C -1796.4147,773.62955 -1796.2832,773.69091 -1796.1488,773.75739 C -1796.2832,773.69056 -1796.4147,773.5983 -1796.5238,773.50739 C -1796.9601,773.14375 -1798.0704,772.15085 -1799.0863,771.22614 z M -1796.1488,773.75739 C -1795.7457,773.95682 -1795.2391,774.05057 -1794.6801,774.13239 C -1795.2392,774.04812 -1795.7456,773.95789 -1796.1488,773.75739 z M -1800.5551,777.91364 L -1801.6175,779.06989 L -1801.1488,780.38239 L -1800.5551,777.91364 z"
         style="opacity:0.7837838;fill:url(#linearGradient4787);fill-opacity:1;fill-rule:evenodd;stroke:none;stroke-width:1px;stroke-linecap:butt;stroke-linejoin:miter;stroke-opacity:1" />
    </clipPath>
    <linearGradient
       y2="358.38824"
       x2="-1573.2225"
       y1="95.709091"
       x1="-1573.2225"
       gradientTransform="translate(1.1636364,569.01818)"
       gradientUnits="userSpaceOnUse"
       id="linearGradient4787"
       xlink:href="#linearGradient3434"
       inkscape:collect="always" />
    <radialGradient
       inkscape:collect="always"
       xlink:href="#linearGradient4027"
       id="radialGradient3687"
       gradientUnits="userSpaceOnUse"
       gradientTransform="matrix(0.91803278,0,0,0.55081967,8.6748632,209.91885)"
       cx="105.83333"
       cy="42.811005"
       fx="105.83333"
       fy="42.811005"
       r="115.28274" />
    <linearGradient
       id="linearGradient4055">
      <stop
         id="stop4057"
         offset="0"
         style="stop-color:#dffaff;stop-opacity:1;" />
      <stop
         style="stop-color:#c6f5ff;stop-opacity:0.8125;"
         offset="0.5"
         id="stop6417" />
      <stop
         id="stop4059"
         offset="1"
         style="stop-color:#aef0ff;stop-opacity:0;" />
    </linearGradient>
    <linearGradient
       id="linearGradient3831">
      <stop
         id="stop3833"
         offset="0"
         style="stop-color:#6de4ff;stop-opacity:1;" />
      <stop
         style="stop-color:#578bcf;stop-opacity:1;"
         offset="0.66233766"
         id="stop3847" />
      <stop
         id="stop3835"
         offset="1"
         style="stop-color:#0027a0;stop-opacity:1" />
    </linearGradient>
    <linearGradient
       id="linearGradient5076-5">
      <stop
         id="stop5078-6"
         offset="0"
         style="stop-color:#7f8689;stop-opacity:1;" />
      <stop
         id="stop5080-6"
         offset="1"
         style="stop-color:#b6babc;stop-opacity:0;" />
    </linearGradient>
    <linearGradient
       id="linearGradient5036">
      <stop
         id="stop5038"
         offset="0"
         style="stop-color:#36393b;stop-opacity:1;" />
      <stop
         id="stop5040"
         offset="1"
         style="stop-color:#b6babc;stop-opacity:0;" />
    </linearGradient>
    <linearGradient
       id="linearGradient4974">
      <stop
         id="stop4976"
         offset="0"
         style="stop-color:#737a7e;stop-opacity:1;" />
      <stop
         id="stop4978"
         offset="1"
         style="stop-color:#b6babc;stop-opacity:0;" />
    </linearGradient>
    <linearGradient
       id="linearGradient3840">
      <stop
         style="stop-color:#fffb04;stop-opacity:1;"
         offset="0"
         id="stop3842" />
      <stop
         style="stop-color:#fbf700;stop-opacity:0;"
         offset="1"
         id="stop3844" />
    </linearGradient>
    <linearGradient
       id="linearGradient3814">
      <stop
         style="stop-color:#fffd33;stop-opacity:1;"
         offset="0"
         id="stop3816" />
      <stop
         id="stop3826"
         offset="0.45616123"
         style="stop-color:#fae926;stop-opacity:1;" />
      <stop
         id="stop3818"
         offset="0.66785437"
         style="stop-color:#f5d619;stop-opacity:1;" />
      <stop
         id="stop3820"
         offset="0.8712194"
         style="stop-color:#ebb000;stop-opacity:1;" />
      <stop
         style="stop-color:#db6700;stop-opacity:1;"
         offset="1"
         id="stop3822" />
    </linearGradient>
    <linearGradient
       id="linearGradient3713">
      <stop
         id="stop3715"
         offset="0"
         style="stop-color:#fed94f;stop-opacity:1;" />
      <stop
         style="stop-color:#feb64f;stop-opacity:0.49803922;"
         offset="0.625"
         id="stop3838" />
      <stop
         id="stop3717"
         offset="1"
         style="stop-color:#fed94f;stop-opacity:0;" />
    </linearGradient>
    <linearGradient
       id="linearGradient3399">
      <stop
         style="stop-color:#ffffff;stop-opacity:0;"
         offset="0"
         id="stop3401" />
      <stop
         id="stop3403"
         offset="0.88333333"
         style="stop-color:#ffffff;stop-opacity:0;" />
      <stop
         style="stop-color:#ffffff;stop-opacity:1;"
         offset="1"
         id="stop3405" />
    </linearGradient>
    <clipPath
       id="clipPath4783-0"
       clipPathUnits="userSpaceOnUse">
      <path
         sodipodi:nodetypes="cccccccccccccccccccccccccccccccccccccccccscccccccccccccccccccccccccccccccccccccccccccccccccscccccccsccccccsccccccccccccccccccccccccccccccccccccccccccccccccccccccsccccccccccccccccccccccccccccccccccccccccccccccccccccccccccccccccsccccccccccccccccccccccccccccccccccccccccccccccccccccccccccccccccsccccccccccccccccccccccccccccccccccccccccccccccccccccccccccccccccccccccccccccccccccccccccccccccccccccccccccccccccccccccccccccccccccccccccccccccccccccccccccccccccccccccscccccccccccccccsssccsccccc"
         id="path4785-4"
         d="M -1573.0863,664.72614 L -1576.4301,665.60114 L -1579.9301,666.91364 L -1582.1175,667.06989 L -1584.7425,667.19489 L -1586.7738,667.78864 L -1589.5238,669.97614 L -1592.4301,670.69489 L -1595.4925,671.56989 L -1596.5238,672.56989 L -1599.9925,672.72614 L -1602.7738,673.88239 L -1603.7738,676.22614 L -1605.5238,677.53864 L -1607.4301,676.50739 L -1611.0551,677.44489 L -1614.2738,678.19489 L -1615.4301,677.22614 L -1616.6488,674.91364 L -1617.4613,673.88239 L -1621.0238,674.85114 L -1623.1175,675.78864 L -1625.6801,676.94489 L -1628.5863,677.22614 L -1631.9925,679.85114 L -1633.2425,681.53864 L -1634.3363,683.63239 L -1635.2738,684.44489 L -1637.6801,684.78864 L -1640.1488,685.22614 L -1642.8988,685.81989 L -1644.0863,686.53864 L -1644.9613,688.00739 L -1648.8675,688.28864 L -1649.7425,691.35114 L -1651.4925,691.91364 L -1654.3988,691.63239 L -1656.4301,693.81989 L -1658.6175,695.13239 L -1660.3675,696.13239 L -1662.3988,695.69489 C -1662.3988,695.69489 -1664.8806,695.27786 -1665.8988,695.13239 C -1666.917,694.98694 -1667.9301,696.72611 -1667.9301,696.72614 L -1669.8363,697.75739 L -1671.8675,699.47614 L -1672.3051,701.97614 L -1675.2113,703.85114 L -1676.9613,704.72614 L -1679.1175,704.72614 L -1679.8675,703.56989 L -1684.2113,702.69489 L -1685.5238,700.35114 L -1686.6801,699.35114 L -1690.8988,698.31989 L -1691.0551,697.31989 L -1693.2425,696.44489 L -1694.3988,697.75739 L -1696.8675,699.19489 L -1699.3363,700.35114 L -1701.3988,701.66364 L -1702.6801,702.41364 L -1703.1175,704.72614 L -1705.0238,707.35114 L -1706.8988,708.35114 L -1707.0551,709.81989 L -1710.1175,713.16364 L -1710.3988,714.91364 L -1713.6175,716.66364 L -1716.8051,717.66364 L -1718.8363,719.69489 L -1720.3051,722.91364 L -1719.9925,726.25739 L -1720.3051,729.31989 L -1722.6175,727.85114 L -1723.6488,725.22614 L -1725.6801,722.91364 L -1727.9925,720.13239 L -1730.3363,718.10114 L -1731.9301,717.38239 L -1735.4301,716.66364 L -1740.2113,716.06989 L -1742.6801,717.53864 L -1750.5551,718.53864 L -1754.1801,719.41364 L -1756.5238,720.28864 L -1761.8988,720.88239 L -1765.3988,720.00739 L -1772.0863,721.60114 L -1773.9613,722.03864 L -1776.7425,720.88239 L -1778.6175,719.13239 C -1778.6175,719.13239 -1780.5164,718.1227 -1781.6801,718.41364 C -1782.8437,718.70455 -1786.1801,718.53861 -1786.1801,718.53864 L -1790.8363,718.69489 L -1792.1488,719.85114 L -1794.6175,722.31989 L -1797.0863,724.94489 L -1797.2425,726.97614 L -1798.2738,728.72614 C -1798.2738,728.72614 -1799.5766,732.64435 -1799.8675,733.22614 C -1800.1584,733.80796 -1800.43,735.2574 -1800.4301,735.25739 L -1801.0238,738.31989 L -1801.8988,745.44489 L -1803.3363,748.78864 L -1804.6488,750.25739 L -1804.6488,754.03864 C -1804.6488,754.03864 -1802.9085,755.76931 -1802.6175,756.35114 C -1802.3266,756.93296 -1802.6176,758.97614 -1802.6175,758.97614 L -1803.4925,763.47614 L -1803.4925,765.97614 L -1801.1488,769.25739 L -1801.2113,768.60114 L -1801.2113,766.94489 L -1800.8051,758.72614 L -1798.7425,755.41364 L -1797.0863,748.44489 L -1794.2113,745.13239 L -1787.2113,744.72614 L -1778.9925,743.91364 L -1776.1175,746.78864 L -1770.7738,749.25739 L -1764.5863,754.19489 L -1756.3675,752.53864 L -1751.8363,759.53864 L -1749.3675,764.06989 L -1743.6175,769.00739 L -1742.8051,776.00739 L -1738.2738,779.69489 L -1734.1488,780.10114 L -1728.8051,780.94489 L -1720.9925,785.44489 L -1714.8051,789.16364 L -1706.1801,794.50739 L -1702.0551,798.63239 L -1692.5863,799.03864 L -1683.1488,803.16364 L -1665.4613,811.38239 L -1655.5863,808.50739 L -1653.1175,805.63239 L -1653.9301,794.91364 L -1649.8051,787.10114 L -1653.1175,782.56989 L -1653.9301,775.16364 L -1645.2738,769.41364 L -1634.9925,765.72614 L -1627.5863,763.66364 L -1620.1801,766.13239 L -1613.6175,767.75739 L -1605.8051,768.19489 L -1601.2738,769.41364 L -1592.6175,763.66364 L -1583.5863,764.88239 L -1575.7738,766.53864 L -1572.0551,771.47614 L -1565.8988,776.41364 L -1561.7738,787.50739 L -1559.3051,799.44489 L -1556.8363,806.85114 L -1550.6801,806.44489 L -1545.7425,798.63239 L -1537.8988,794.10114 C -1537.8988,794.10114 -1531.7371,795.75192 -1529.6801,793.69489 C -1527.623,791.63784 -1522.6801,790.81988 -1522.6801,790.81989 L -1514.8675,792.44489 L -1507.4613,785.88239 L -1504.1801,781.35114 L -1496.3675,780.53864 L -1490.5863,782.97614 L -1483.1801,782.97614 L -1476.2113,781.35114 L -1471.6801,776.00739 L -1467.9613,772.69489 L -1455.6175,769.81989 L -1452.7425,768.19489 L -1439.5863,768.19489 L -1423.9613,769.81989 L -1415.3051,772.28864 L -1410.3675,782.56989 L -1409.1488,785.44489 L -1402.5551,793.69489 L -1398.4301,796.56989 L -1395.5551,799.44489 L -1391.4613,796.97614 L -1386.9301,795.31989 L -1380.3363,793.28864 L -1373.3363,793.28864 L -1364.3051,794.50739 L -1351.5551,799.85114 L -1345.7738,806.03864 L -1338.8051,818.78864 L -1340.0238,827.00739 L -1336.7425,830.72614 L -1332.2113,835.22614 L -1328.9301,842.22614 L -1324.8051,844.28864 L -1319.0551,848.00739 L -1314.9301,848.00739 L -1305.4613,851.28864 L -1300.1175,857.88239 L -1290.6488,864.85114 L -1286.1175,863.63239 L -1279.1488,862.81989 L -1273.3675,870.19489 L -1270.4925,881.72614 L -1264.7425,885.44489 L -1260.2113,886.25739 L -1255.2738,891.19489 L -1252.3988,896.94489 L -1249.9301,906.81989 L -1245.8051,913.81989 L -1245.8051,919.56989 L -1243.3363,925.35114 L -1246.5238,953.41364 L -1244.8675,953.31989 L -1237.0551,952.91364 L -1232.9301,954.97614 L -1208.6488,953.53864 L -1205.4613,953.63239 L -1201.9613,953.72614 L -1197.2425,952.69489 L -1192.8051,952.28864 L -1190.2425,951.97614 L -1187.7738,950.85114 L -1182.6488,948.60114 L -1177.7113,949.10114 L -1173.1801,948.91364 C -1173.1801,948.91364 -1168.1318,948.89148 -1167.6175,948.78864 C -1167.1033,948.68578 -1166.5863,947.47615 -1166.5863,947.47614 L -1164.1175,946.00739 L -1160.2113,945.41364 L -1155.8051,942.00739 L -1155.9925,940.78864 L -1155.3675,939.03864 L -1153.8363,937.60114 L -1154.5551,934.81989 L -1154.3363,932.22614 L -1155.4925,931.22614 L -1155.8051,927.60114 L -1155.8988,926.47614 L -1157.6488,924.72614 L -1160.5238,922.88239 L -1162.9925,922.06989 L -1164.8363,922.16364 L -1166.2738,921.22614 L -1165.1488,919.28864 L -1166.0863,917.22614 L -1167.3988,915.88239 L -1167.1175,914.22614 L -1167.6175,911.75739 L -1167.7113,910.44489 L -1168.5551,909.72614 L -1169.7738,910.13239 L -1171.7425,909.91364 L -1171.7425,912.06989 L -1172.9613,912.38239 L -1174.3988,913.22614 L -1176.0551,912.69489 L -1176.2425,911.75739 L -1177.7113,912.19489 L -1178.5238,910.94489 L -1177.8051,910.03864 L -1176.7738,909.19489 L -1176.2425,907.97614 L -1177.3988,907.56989 L -1178.4301,906.85114 L -1179.0238,905.81989 L -1179.3363,904.47614 L -1180.2738,901.78864 L -1180.3675,899.53864 L -1182.0238,897.97614 L -1183.7738,897.56989 L -1186.3363,897.78864 L -1188.1801,898.72614 L -1191.8988,899.31989 L -1192.5238,897.88239 L -1194.8675,896.85114 L -1193.2425,896.03864 L -1190.4613,893.56989 L -1191.0551,892.31989 L -1191.0551,890.16364 L -1191.0551,888.72614 L -1192.3988,887.50739 L -1192.3051,886.06989 L -1193.3363,885.53864 L -1194.1488,884.63239 L -1191.1801,881.31989 L -1190.1488,878.75739 L -1189.9301,876.69489 L -1191.1801,875.35114 L -1191.7738,874.22614 L -1192.9301,874.53864 C -1192.9301,874.53864 -1194.6749,873.61934 -1195.0863,873.41364 C -1195.4977,873.20793 -1197.43,873.19486 -1197.4301,873.19489 L -1197.6488,871.35114 L -1197.7425,869.81989 L -1195.9925,869.19489 L -1194.4613,868.25739 L -1194.8675,866.72614 L -1195.1801,865.69489 L -1196.2113,865.28864 L -1195.8051,864.35114 L -1194.3675,863.22614 L -1194.9613,862.10114 L -1194.9613,859.72614 L -1195.4925,857.56989 L -1196.1175,856.35114 L -1196.4301,853.88239 L -1196.3051,852.00739 L -1197.0238,850.25739 L -1197.6488,845.53864 L -1199.7113,844.41364 L -1200.7425,844.10114 L -1199.6175,841.81989 L -1200.0238,840.69489 L -1202.4925,841.53864 L -1202.8988,838.94489 L -1205.3675,839.35114 L -1206.1801,838.44489 L -1205.3675,837.10114 L -1203.3051,837.81989 L -1202.1801,836.38239 L -1201.9613,834.94489 L -1202.3675,832.69489 L -1202.1801,831.03864 L -1201.8675,828.75739 L -1203.8363,827.13239 L -1204.3363,825.47614 L -1205.7738,823.63239 L -1206.5863,821.47614 L -1206.8988,819.63239 L -1210.1175,816.22614 L -1211.0551,815.06989 L -1212.8675,814.97614 L -1215.6488,813.88239 L -1217.3051,813.75739 L -1221.0238,813.00739 L -1223.9925,811.56989 L -1226.6801,811.35114 L -1232.8051,810.41364 L -1241.2425,809.66364 L -1241.6175,808.44489 L -1244.4301,808.56989 L -1247.0551,807.85114 L -1248.5238,807.19489 L -1250.5551,805.81989 L -1251.7738,804.66364 L -1251.2113,803.25739 L -1251.5551,801.53864 L -1253.2425,801.31989 L -1255.7113,801.81989 L -1257.2425,801.97614 L -1255.8675,800.66364 L -1254.8363,799.13239 L -1255.3363,798.69489 L -1256.8051,797.60114 L -1256.4301,797.10114 L -1254.9925,796.13239 L -1254.0551,794.69489 L -1255.4301,793.53864 L -1254.8363,792.28864 L -1254.3363,789.75739 L -1255.8675,787.41364 L -1257.9613,786.31989 L -1261.2425,785.97614 L -1265.2425,785.53864 L -1267.2113,784.50739 L -1267.7113,782.91364 L -1269.9613,782.10114 L -1272.0863,781.38239 L -1273.6175,780.00739 L -1274.6175,779.06989 L -1276.6488,779.25739 L -1278.8363,779.25739 L -1281.8363,777.22614 L -1282.7738,775.85114 L -1290.4613,774.97614 L -1292.5238,774.10114 L -1295.8675,774.41364 L -1297.8988,775.69489 L -1298.6175,775.25739 L -1300.9613,774.97614 L -1302.9925,774.25739 L -1304.1488,772.94489 L -1308.3675,773.22614 L -1308.9613,774.85114 L -1311.2738,775.41364 L -1312.8675,775.13239 L -1312.7425,777.60114 L -1313.3051,778.91364 L -1315.2113,777.88239 L -1319.8675,778.31989 L -1322.0551,779.63239 L -1325.2425,780.06989 L -1327.9925,779.78864 L -1329.0238,777.75739 L -1333.9613,779.19489 L -1337.1801,780.94489 L -1341.8363,785.16364 L -1343.8675,786.19489 L -1345.8988,785.44489 L -1348.2113,784.88239 L -1351.1175,786.03864 L -1352.8675,786.03864 L -1357.5238,787.78864 L -1366.8363,786.63239 L -1368.5863,785.44489 L -1371.4925,787.19489 L -1371.4925,790.69489 L -1376.7425,788.94489 L -1383.1175,787.19489 L -1387.2113,784.88239 L -1387.2113,780.22614 L -1389.5238,773.81989 L -1391.2738,769.75739 L -1395.9301,765.66364 L -1398.8363,761.60114 L -1399.4301,759.25739 L -1404.0863,756.35114 L -1409.3051,753.44489 L -1414.5551,749.97614 L -1417.4613,747.06989 L -1423.2738,744.72614 L -1430.2738,740.66364 L -1436.0863,737.16364 L -1440.1488,733.66364 L -1445.9613,730.19489 L -1452.3675,734.85114 L -1462.8363,734.25739 L -1469.2425,734.25739 L -1475.6488,736.56989 L -1480.8675,737.16364 L -1487.8675,741.22614 L -1491.9301,742.97614 L -1493.6801,741.22614 L -1500.0863,738.91364 L -1505.3051,741.22614 L -1512.8675,747.63239 L -1515.0551,748.22614 L -1517.0863,748.94489 L -1521.6175,747.78864 L -1524.2113,747.78864 L -1527.4301,746.31989 L -1527.9925,744.72614 L -1528.8675,737.16364 L -1528.5863,733.53864 L -1528.3051,728.28864 L -1527.2738,725.66364 L -1526.8363,719.85114 L -1527.4301,716.66364 L -1527.1175,712.44489 L -1527.5551,707.63239 L -1527.7113,703.85114 L -1529.6175,701.10114 L -1532.2113,695.69489 L -1534.5551,693.22614 L -1538.1801,689.75739 L -1540.0863,689.00739 L -1543.1175,688.44489 C -1543.1175,688.44489 -1545.1522,686.97614 -1546.4613,686.97614 C -1547.7704,686.97614 -1548.5238,687.1324 -1548.5238,687.13239 L -1548.9613,684.78864 L -1548.6488,681.75739 L -1550.6801,680.72614 L -1552.5863,679.41364 L -1553.7425,677.53864 L -1555.7738,675.47614 L -1559.8675,674.47614 L -1561.4613,673.44489 L -1563.3363,672.28864 L -1565.8363,670.53864 L -1569.3051,667.47614 L -1570.7738,665.44489 L -1573.0863,664.72614 z M -1799.0863,771.22614 C -1798.0681,772.15341 -1796.9601,773.175 -1796.5238,773.53864 C -1796.4147,773.62955 -1796.2832,773.69091 -1796.1488,773.75739 C -1796.2832,773.69056 -1796.4147,773.5983 -1796.5238,773.50739 C -1796.9601,773.14375 -1798.0704,772.15085 -1799.0863,771.22614 z M -1796.1488,773.75739 C -1795.7457,773.95682 -1795.2391,774.05057 -1794.6801,774.13239 C -1795.2392,774.04812 -1795.7456,773.95789 -1796.1488,773.75739 z M -1800.5551,777.91364 L -1801.6175,779.06989 L -1801.1488,780.38239 L -1800.5551,777.91364 z"
         style="opacity:0.7837838;fill:url(#linearGradient4787);fill-opacity:1;fill-rule:evenodd;stroke:none;stroke-width:1px;stroke-linecap:butt;stroke-linejoin:miter;stroke-opacity:1" />
    </clipPath>
    <clipPath
       id="clipPath3939"
       clipPathUnits="userSpaceOnUse">
      <path
         style="fill:url(#radialGradient3943-4);fill-opacity:1;fill-rule:evenodd;stroke:none;stroke-width:1px;stroke-linecap:butt;stroke-linejoin:miter;stroke-opacity:1"
         d="M -77.845095,231.2633 C -76.671655,232.87067 -72.734065,233.42601 -71.262575,232.08612 C -66.804671,228.02689 -69.735921,220.87948 -73.319605,210.28152 C -72.228695,221.98561 -81.416705,226.37093 -77.845095,231.2633 z"
         id="path3941"
         sodipodi:nodetypes="cscs" />
    </clipPath>
    <radialGradient
       r="5.333894"
       fy="224.05939"
       fx="-105.84051"
       cy="223.00551"
       cx="-104.09505"
       gradientTransform="matrix(1,0,0,2.2082877,30.254545,-267.70857)"
       gradientUnits="userSpaceOnUse"
       id="radialGradient3943-4"
       xlink:href="#linearGradient3831"
       inkscape:collect="always" />
    <clipPath
       id="clipPath4115"
       clipPathUnits="userSpaceOnUse">
      <path
         sodipodi:nodetypes="cscs"
         id="path4118"
         d="M -47.082144,219.28599 C -46.212444,220.66825 -43.294084,221.14582 -42.203483,219.99358 C -38.89949,216.50281 -40.172043,213.08192 -43.342364,205.40806 C -46.545056,213.21033 -49.729257,215.07875 -47.082144,219.28599 z"
         style="fill:url(#radialGradient4120);fill-opacity:1;fill-rule:evenodd;stroke:none;stroke-width:1px;stroke-linecap:butt;stroke-linejoin:miter;stroke-opacity:1" />
    </clipPath>
    <radialGradient
       r="5.333894"
       fy="225.14424"
       fx="-107.36649"
       cy="224.09036"
       cx="-105.62103"
       gradientTransform="matrix(0.7002035,7.347844e-2,-0.1478857,1.409258,62.159036,-92.811179)"
       gradientUnits="userSpaceOnUse"
       id="radialGradient4120"
       xlink:href="#linearGradient3831"
       inkscape:collect="always" />
  </defs>
  <sodipodi:namedview
     id="base"
     pagecolor="#ffffff"
     bordercolor="#666666"
     borderopacity="1.0"
     inkscape:pageopacity="0.0"
     inkscape:pageshadow="2"
     inkscape:zoom="0.7"
     inkscape:cx="360.65609"
     inkscape:cy="179.38891"
     inkscape:document-units="mm"
     inkscape:current-layer="layer1"
     showgrid="false"
     units="px"
     inkscape:window-width="1920"
     inkscape:window-height="1011"
     inkscape:window-x="0"
     inkscape:window-y="0"
     inkscape:window-maximized="1"
     inkscape:snap-global="false"
     showguides="false" />
  <metadata
     id="metadata5">
    <rdf:RDF>
      <cc:Work
         rdf:about="">
        <dc:format>image/svg+xml</dc:format>
        <dc:type
           rdf:resource="http://purl.org/dc/dcmitype/StillImage" />
        <dc:title />
      </cc:Work>
    </rdf:RDF>
  </metadata>
  <g
     inkscape:label="Calque 1"
     inkscape:groupmode="layer"
     id="layer1"
     transform="translate(0,-169.99999)">
    <rect
       y="169.99998"
       x="-1.7763568e-15"
       height="127"
       width="211.66667"
       id="rect3198"
       style="opacity:1;fill:url(#radialGradient3687);fill-opacity:1;stroke:none;stroke-width:0.45964476;stroke-linejoin:round;stroke-miterlimit:4;stroke-dasharray:none;stroke-dashoffset:0;stroke-opacity:1" />
  </g>
  <style
     id="style2"
     type="text/css">
	.st0{fill:#FFFFFF;}
	.st1{fill:none;}
	.st2{fill-rule:evenodd;clip-rule:evenodd;}
	.st3{fill:none;stroke:#FFFFFF;stroke-width:8;stroke-linecap:round;stroke-linejoin:round;stroke-miterlimit:10;}
</style>
</svg>
