<?xml version="1.0" encoding="UTF-8" standalone="no"?>
<svg
   xmlns:dc="http://purl.org/dc/elements/1.1/"
   xmlns:cc="http://creativecommons.org/ns#"
   xmlns:rdf="http://www.w3.org/1999/02/22-rdf-syntax-ns#"
   xmlns:svg="http://www.w3.org/2000/svg"
   xmlns="http://www.w3.org/2000/svg"
   xmlns:sodipodi="http://sodipodi.sourceforge.net/DTD/sodipodi-0.dtd"
   xmlns:inkscape="http://www.inkscape.org/namespaces/inkscape"
   version="1.1"
   x="0px"
   y="0px"
   viewBox="0 0 125 125"
   id="svg10"
   sodipodi:docname="bluetooth.svg"
   width="125"
   height="125"
   inkscape:version="0.92.5 (2060ec1f9f, 2020-04-08)">
  <metadata
     id="metadata16">
    <rdf:RDF>
      <cc:Work
         rdf:about="">
        <dc:format>image/svg+xml</dc:format>
        <dc:type
           rdf:resource="http://purl.org/dc/dcmitype/StillImage" />
        <dc:title></dc:title>
      </cc:Work>
    </rdf:RDF>
  </metadata>
  <defs
     id="defs14" />
  <sodipodi:namedview
     pagecolor="#ffffff"
     bordercolor="#666666"
     borderopacity="1"
     objecttolerance="10"
     gridtolerance="10"
     guidetolerance="10"
     inkscape:pageopacity="0"
     inkscape:pageshadow="2"
     inkscape:window-width="1920"
     inkscape:window-height="1011"
     id="namedview12"
     showgrid="false"
     inkscape:zoom="3.776"
     inkscape:cx="90.351255"
     inkscape:cy="67.099777"
     inkscape:window-x="0"
     inkscape:window-y="0"
     inkscape:window-maximized="1"
     inkscape:current-layer="svg10" />
  <path
     style="color:#000000;display:inline;overflow:visible;visibility:visible;fill:#000000;stroke:none;stroke-width:1.54873478;enable-background:accumulate"
     d="m 57.917579,19.148332 a 3.0977793,3.0977793 0 0 0 -0.308538,0.02117 3.0977793,3.0977793 0 0 0 -2.710286,3.097469 v 33.878573 l -10.45396,-8.421245 a 3.0977793,3.0977793 0 0 0 -2.323102,-0.72597 3.0977793,3.0977793 0 0 0 -1.548735,5.517368 l 12.389879,10.018378 -12.389879,9.969981 a 3.0977793,3.0977793 0 1 0 3.871837,4.791397 l 10.45396,-8.421245 v 33.926982 a 3.0977793,3.0977793 0 0 0 5.033388,2.37149 L 84.7119,85.039131 a 3.0977793,3.0977793 0 0 0 0,-4.791398 L 62.739225,62.534078 84.7119,44.772025 a 3.0977793,3.0977793 0 0 0 0,-4.791397 L 59.932143,19.847075 A 3.0977793,3.0977793 0 0 0 57.917579,19.14833 Z m 3.176116,9.603971 16.794092,13.599828 -16.794092,13.599827 z m 0,40.315503 16.794092,13.599828 -16.794092,13.648229 z"
     id="path828"
     inkscape:connector-curvature="0" />
</svg>
