<?xml version="1.0" encoding="UTF-8" standalone="no"?>
<svg
   xmlns:dc="http://purl.org/dc/elements/1.1/"
   xmlns:cc="http://creativecommons.org/ns#"
   xmlns:rdf="http://www.w3.org/1999/02/22-rdf-syntax-ns#"
   xmlns:svg="http://www.w3.org/2000/svg"
   xmlns="http://www.w3.org/2000/svg"
   xmlns:xlink="http://www.w3.org/1999/xlink"
   version="1.1"
   id="svg2"
   height="512.91681"
   width="343.40945">
  <title
     id="title4">Clean Fire</title>
  <metadata
     id="metadata3">FirefestivefireOpen Clip Art LibraryValessio Soares de BritoValessio Soares de Britoimage/svg+xmlen<rdf:RDF>
  <cc:Work
     rdf:about="">
    <dc:format>image/svg+xml</dc:format>
    <dc:type
       rdf:resource="http://purl.org/dc/dcmitype/StillImage" />
    <dc:title>Clean Fire</dc:title>
  </cc:Work>
</rdf:RDF>
</metadata>
  <defs
     id="defs7">
    <linearGradient
       id="linearGradient859">
      <stop
         style="stop-color:#474747;stop-opacity:1"
         stop-color="#474747"
         offset="0"
         id="stop855" />
      <stop
         style="stop-color:#ababab;stop-opacity:1"
         stop-color="#ababab"
         offset="1"
         id="stop857" />
    </linearGradient>
    <linearGradient
       id="linearGradient853">
      <stop
         style="stop-color:#4d4d4d;stop-opacity:1"
         stop-color="#4d4d4d"
         offset="0"
         id="stop849" />
      <stop
         style="stop-color:#9e9e9e;stop-opacity:1"
         stop-color="#9e9e9e"
         offset="1"
         id="stop851" />
    </linearGradient>
    <linearGradient
       id="linearGradient847">
      <stop
         style="stop-color:#6e6e6e;stop-opacity:1"
         stop-color="#6e6e6e"
         offset="0"
         id="stop843" />
      <stop
         style="stop-color:#e6e6e6;stop-opacity:1"
         stop-color="#e6e6e6"
         offset="1"
         id="stop845" />
    </linearGradient>
    <linearGradient
       id="linearGradient29186">
      <stop
         id="stop29187"
         offset="0"
         stop-color="#ffffff" />
      <stop
         id="stop29188"
         offset="1"
         stop-opacity="0"
         stop-color="#ffffff" />
    </linearGradient>
    <linearGradient
       id="linearGradient17250">
      <stop
         style="stop-color:#484848;stop-opacity:1"
         id="stop17251"
         offset="0"
         stop-color="#484848" />
      <stop
         style="stop-color:#bcbcbc;stop-opacity:1"
         id="stop17252"
         offset="1"
         stop-color="#bcbcbc" />
    </linearGradient>
    <linearGradient
       id="linearGradient26051">
      <stop
         id="stop26052"
         offset="0"
         stop-opacity="0.449275"
         stop-color="#ffffff" />
      <stop
         id="stop26053"
         offset="1"
         stop-opacity="0"
         stop-color="#ffffff" />
    </linearGradient>
    <linearGradient
       id="linearGradient14625">
      <stop
         id="stop14626"
         offset="0"
         stop-color="#ffffff" />
      <stop
         id="stop14627"
         offset="1"
         stop-opacity="0"
         stop-color="#ffffff" />
    </linearGradient>
    <linearGradient
       gradientUnits="userSpaceOnUse"
       gradientTransform="matrix(0.67852675,0,0,1.4737812,-9.822279,-51.51736)"
       xlink:href="#linearGradient14625"
       id="linearGradient4463"
       x1="176.91841"
       y1="55.289661"
       x2="405.02551"
       y2="301.05521" />
    <linearGradient
       gradientUnits="userSpaceOnUse"
       gradientTransform="matrix(0.56550949,0,0,1.7683169,-82.234179,-17.71325)"
       xlink:href="#linearGradient26051"
       id="linearGradient4466"
       x1="301.31958"
       y1="49.213818"
       x2="363.36502"
       y2="49.213818" />
    <linearGradient
       gradientUnits="userSpaceOnUse"
       gradientTransform="matrix(0.68602711,0,0,1.4576683,-82.234179,-17.71325)"
       xlink:href="#linearGradient859"
       id="linearGradient4470"
       x1="325.20172"
       y1="379.51053"
       x2="378.4357"
       y2="197.55136" />
    <linearGradient
       gradientUnits="userSpaceOnUse"
       gradientTransform="matrix(0.62475875,0,0,1.6006178,-82.234179,-17.71325)"
       xlink:href="#linearGradient26051"
       id="linearGradient4473"
       x1="604.6712"
       y1="208.66286"
       x2="663.42261"
       y2="208.66286" />
    <linearGradient
       gradientUnits="userSpaceOnUse"
       gradientTransform="matrix(0.76167539,0,0,1.3128952,-82.234179,-17.71325)"
       xlink:href="#linearGradient14625"
       id="linearGradient4476"
       x1="704.58331"
       y1="215.54375"
       x2="401.21863"
       y2="368.72275" />
    <linearGradient
       gradientUnits="userSpaceOnUse"
       gradientTransform="matrix(0.79717637,0,0,1.2544276,-82.234179,-17.71325)"
       xlink:href="#linearGradient17250"
       id="linearGradient4479"
       x1="381.65662"
       y1="380.50354"
       x2="491.27167"
       y2="238.57043" />
    <linearGradient
       gradientUnits="userSpaceOnUse"
       gradientTransform="matrix(0.80266507,0,0,1.2458497,-82.234179,-17.71325)"
       xlink:href="#linearGradient29186"
       id="linearGradient4498"
       x1="-111.42184"
       y1="37.318504"
       x2="384.97592"
       y2="420.59518" />
    <linearGradient
       gradientUnits="userSpaceOnUse"
       gradientTransform="matrix(0.61243685,0,0,1.6328214,-82.234179,-17.71325)"
       xlink:href="#linearGradient26051"
       id="linearGradient4501"
       x1="520.71631"
       y1="104.4592"
       x2="573.92993"
       y2="104.4592" />
    <linearGradient
       gradientUnits="userSpaceOnUse"
       gradientTransform="matrix(0.61545471,0,0,1.6248149,-82.234179,-17.71325)"
       xlink:href="#linearGradient14625"
       id="linearGradient4504"
       x1="26.867113"
       y1="107.58266"
       x2="225.1524"
       y2="321.83118" />
    <linearGradient
       gradientUnits="userSpaceOnUse"
       gradientTransform="matrix(0.60479858,0,0,1.653443,-82.234179,-17.71325)"
       xlink:href="#linearGradient853"
       id="linearGradient4512"
       x1="327.27966"
       y1="285.51208"
       x2="277.42697"
       y2="178.95242" />
    <linearGradient
       gradientUnits="userSpaceOnUse"
       gradientTransform="matrix(0.80688829,0,0,1.2393289,-82.234179,-17.71325)"
       xlink:href="#linearGradient847"
       id="linearGradient4515"
       x1="189.62608"
       y1="392.98093"
       x2="287.08307"
       y2="117.96692" />
  </defs>
  <g
     transform="translate(-82.234179,-17.71325)"
     id="svg_1" />
  <path
     style="fill:url(#linearGradient4515);fill-rule:evenodd;stroke:none;stroke-width:2.15631104;stroke-miterlimit:4;stroke-opacity:0.50381703"
     d="m 1.072805,360.58304 c 30.514446,90.17695 78.791036,137.99814 165.324485,143.46348 95.18689,30.51428 183.54211,-31.88074 158.49295,-129.80027 -11.38599,20.95014 -18.673,32.33625 -38.2569,38.25687 7.7425,-54.19736 -41.90045,-63.306 -17.76214,-121.60236 16.85125,-35.97964 26.87091,-80.15728 -2.73264,-116.13701 -12.29687,40.98955 -27.32635,68.31597 -57.38537,98.37493 3.18808,-50.0983 29.60354,-90.63246 13.6632,-137.99814 2.27716,-31.88077 -50.09835,-30.96989 -50.5538,-128.433929 -33.24707,41.900452 -47.36568,74.236633 -42.35585,137.998169 -12.29687,51.46462 -42.355829,70.13773 -36.890579,125.70136 -4.55443,-30.96998 -7.74249,-57.8409 -1.36633,-80.61287 -3.64352,-28.23723 -7.28706,-52.37555 -35.52426,-72.41487 8.65333,35.06883 18.673,87.89981 -10.93057,101.10748 -8.1979,16.85124 -49.187466,74.69214 -4.09894,165.32458 C 27.488311,376.068 14.280547,373.79078 1.072806,360.58305 Z"
     id="path15991"
     stroke-miterlimit="4" />
  <path
     style="fill:url(#linearGradient4512);fill-rule:evenodd;stroke:none;stroke-width:2.15631104;stroke-miterlimit:4;stroke-opacity:0.50381703"
     d="M 156.83311,490.38328 C 84.418241,413.86939 72.121361,360.58304 119.94252,310.02927 c 53.74182,-95.64226 40.53409,-155.76028 1.36632,-213.14561 36.89057,127.06753 -43.722219,209.04655 -69.682259,245.93718 -15.48492,-47.82105 -2.27719,-68.31589 19.12848,-127.06754 -41.90045,45.54395 -67.405064,100.65207 -51.9201,153.02762 28.23724,78.79102 94.731379,96.09775 137.998149,121.60236 z"
     id="path15990"
     stroke-miterlimit="4" />
  <path
     style="fill:url(#linearGradient4479);fill-rule:evenodd;stroke:none;stroke-width:2.15631104;stroke-miterlimit:4;stroke-opacity:0.50381703"
     d="m 189.62474,490.38328 c 28.23721,-15.9404 35.97967,-66.03876 39.6232,-121.60236 6.8316,-53.74182 20.49478,-107.48367 110.67184,-116.13702 -36.89063,29.60363 -66.94965,66.03872 -53.28644,133.89926 -3.64352,98.83032 -76.9693,95.18677 -97.0086,103.84012 z"
     id="path15992"
     stroke-miterlimit="4" />
  <path
     style="fill:url(#linearGradient4470);fill-rule:evenodd;stroke:none;stroke-width:2.15631104;stroke-miterlimit:4;stroke-opacity:0.50381703"
     d="m 140.4373,453.49271 c -3.64356,-43.72217 -8.65338,-75.14758 46.45483,-114.77078 93.36502,-65.12778 47.36566,-102.92931 -10.93057,-170.78975 17.3067,67.40494 -10.4751,121.14681 -34.15799,157.12657 -15.48491,22.31659 -69.226749,67.86051 -1.36627,128.43396 z"
     id="path15989"
     stroke-miterlimit="4" />
</svg>
