<?xml version="1.0" encoding="UTF-8" standalone="no"?>
<svg
   xmlns:dc="http://purl.org/dc/elements/1.1/"
   xmlns:cc="http://creativecommons.org/ns#"
   xmlns:rdf="http://www.w3.org/1999/02/22-rdf-syntax-ns#"
   xmlns:svg="http://www.w3.org/2000/svg"
   xmlns="http://www.w3.org/2000/svg"
   xmlns:sodipodi="http://sodipodi.sourceforge.net/DTD/sodipodi-0.dtd"
   xmlns:inkscape="http://www.inkscape.org/namespaces/inkscape"
   version="1.1"
   x="0px"
   y="0px"
   viewBox="0 0 128 128"
   xml:space="preserve"
   id="svg10"
   sodipodi:docname="fire-turn-off.svg"
   width="128"
   height="128"
   inkscape:version="0.92.5 (2060ec1f9f, 2020-04-08)"><metadata
     id="metadata16"><rdf:RDF><cc:Work
         rdf:about=""><dc:format>image/svg+xml</dc:format><dc:type
           rdf:resource="http://purl.org/dc/dcmitype/StillImage" /><dc:title></dc:title></cc:Work></rdf:RDF></metadata><defs
     id="defs14" /><sodipodi:namedview
     pagecolor="#ffffff"
     bordercolor="#666666"
     borderopacity="1"
     objecttolerance="10"
     gridtolerance="10"
     guidetolerance="10"
     inkscape:pageopacity="0"
     inkscape:pageshadow="2"
     inkscape:window-width="1920"
     inkscape:window-height="1011"
     id="namedview12"
     showgrid="false"
     inkscape:zoom="1.888"
     inkscape:cx="-8.7923729"
     inkscape:cy="62.5"
     inkscape:window-x="0"
     inkscape:window-y="0"
     inkscape:window-maximized="1"
     inkscape:current-layer="svg10" /><g
     id="g4"
     transform="translate(14,14)"><path
       d="M 81.119,17.541 C 81.081,17.497 81.051,17.449 81.01,17.407 80.942,17.339 80.865,17.287 80.792,17.229 72.736,9.655 61.904,5 50,5 25.187,5 5,25.187 5,50 c 0,11.842 4.605,22.624 12.11,30.667 0.085,0.123 0.178,0.243 0.288,0.353 0.068,0.068 0.145,0.12 0.218,0.178 C 25.807,89.697 37.292,95 50,95 74.813,95 95,74.813 95,50 95,37.253 89.664,25.737 81.119,17.541 Z M 50,10 c 9.728,0 18.652,3.494 25.594,9.288 L 61.801,33.081 c -2.552,-2.493 -5.454,-4.762 -8.631,-6.89 -3.286,-2.201 -6.768,-4.473 -10.514,-5.815 -0.26,-0.093 -0.548,-0.184 -0.804,-0.08 -0.669,0.272 0.171,1.117 0.619,1.683 3.518,4.445 5.128,10.181 5.365,15.845 0.159,3.798 -0.525,7.617 -1.926,11.15 l -3.783,3.783 c -1.415,-1.631 -2.28,-3.743 -2.351,-5.904 -0.018,-0.561 -0.078,-1.265 -0.605,-1.458 -0.397,-0.145 -0.818,0.109 -1.159,0.359 -5.346,3.919 -10.024,10.17 -10.796,16.88 -0.184,1.602 -0.098,3.229 0.22,4.813 L 19.29,75.593 C 13.494,68.653 10,59.728 10,50 10,27.944 27.944,10 50,10 Z m 0,80 C 39.468,90 29.879,85.901 22.729,79.224 l 6.662,-6.662 c 1.437,2.454 3.494,4.534 6.024,5.856 0.322,0.168 0.701,0.328 1.036,0.187 0.617,-0.26 0.523,-1.184 0.247,-1.794 -1.733,-3.816 -2.355,-6.577 -1.552,-10.004 l 3.771,-3.771 c 2.359,3.563 5.295,6.755 8.318,9.756 1.538,1.527 1.639,0.613 1.86,-1.414 0.629,-5.78 2.929,-10.72 6.94,-15.808 0.417,-0.529 0.893,-1.159 1.566,-1.132 0.612,0.024 1.039,0.58 1.408,1.068 5.281,6.977 7.633,13.074 0.092,22.529 -0.292,0.366 -0.545,0.869 -0.349,1.294 0.281,0.606 1.18,0.459 1.786,0.176 C 70.767,74.729 74.197,63.586 72.448,53.038 71.422,46.849 69.031,41.74 65.622,37.337 65.476,37.149 65.319,36.969 65.17,36.783 L 79.225,22.728 C 85.901,29.879 90,39.468 90,50 90,72.056 72.056,90 50,90 Z"
       id="path2"
       inkscape:connector-curvature="0" /></g></svg>