<?xml version="1.0" encoding="UTF-8" standalone="no"?>
<svg
   xmlns:dc="http://purl.org/dc/elements/1.1/"
   xmlns:cc="http://creativecommons.org/ns#"
   xmlns:rdf="http://www.w3.org/1999/02/22-rdf-syntax-ns#"
   xmlns:svg="http://www.w3.org/2000/svg"
   xmlns="http://www.w3.org/2000/svg"
   xmlns:sodipodi="http://sodipodi.sourceforge.net/DTD/sodipodi-0.dtd"
   xmlns:inkscape="http://www.inkscape.org/namespaces/inkscape"
   version="1.1"
   x="0px"
   y="0px"
   viewBox="0 0 512 472.01245"
   overflow="inherit"
   xml:space="preserve"
   id="svg8"
   sodipodi:docname="house.svg"
   width="512"
   height="472.01245"
   style="overflow:inherit"
   inkscape:version="0.92.5 (2060ec1f9f, 2020-04-08)"><metadata
     id="metadata14"><rdf:RDF><cc:Work
         rdf:about=""><dc:format>image/svg+xml</dc:format><dc:type
           rdf:resource="http://purl.org/dc/dcmitype/StillImage" /><dc:title></dc:title></cc:Work></rdf:RDF></metadata><defs
     id="defs12" /><sodipodi:namedview
     pagecolor="#ffffff"
     bordercolor="#666666"
     borderopacity="1"
     objecttolerance="10"
     gridtolerance="10"
     guidetolerance="10"
     inkscape:pageopacity="0"
     inkscape:pageshadow="2"
     inkscape:window-width="1920"
     inkscape:window-height="1011"
     id="namedview10"
     showgrid="false"
     fit-margin-top="0"
     fit-margin-left="0"
     fit-margin-right="0"
     fit-margin-bottom="0"
     inkscape:zoom="0.93635002"
     inkscape:cx="218.24284"
     inkscape:cy="253.07238"
     inkscape:window-x="0"
     inkscape:window-y="0"
     inkscape:window-maximized="1"
     inkscape:current-layer="svg8" /><path
     d="m 255.99668,0 c -9.1527,0 -17.9013,3.2045 -24.63642,9.018 L 10.922819,199.72156 c -14.4911758,12.52738 -10.89674024,26.1749 -9.4504585,30.06 1.4462817,3.8922 7.6567853,16.56844 26.8200175,16.56844 h 30.208856 v 190.2144 c 0,19.54606 15.902006,35.44806 35.448078,35.44806 H 418.05112 c 19.54608,0 35.44808,-15.902 35.44808,-35.44808 v -186.3789 -3.8355 h 30.20886 c 19.16322,0 25.37374,-12.67624 26.82002,-16.56844 1.44628,-3.8851 5.0407,-17.5397 -9.45756,-30.06706 l -44.19666,-38.2414 c -1.34704,-1.27612 -3.28958,-5.5228 -3.37466,-7.41572 V 79.942519 c 0,-19.54608 -15.902,-35.448079 -35.44808,-35.448079 h -35.41264 c -15.46954,0 -28.65622,9.9609 -33.48426,23.799839 L 280.64018,9.02508 C 273.89796,3.2045 265.14936,0 255.99668,0 Z"
     id="path2"
     inkscape:connector-curvature="0"
     sodipodi:nodetypes="scccscssssccsccccsssccs"
     style="stroke-width:7.0896163" /></svg>