<?xml version="1.0" encoding="UTF-8" standalone="no"?>
<svg
   xmlns:dc="http://purl.org/dc/elements/1.1/"
   xmlns:cc="http://creativecommons.org/ns#"
   xmlns:rdf="http://www.w3.org/1999/02/22-rdf-syntax-ns#"
   xmlns:svg="http://www.w3.org/2000/svg"
   xmlns="http://www.w3.org/2000/svg"
   xmlns:sodipodi="http://sodipodi.sourceforge.net/DTD/sodipodi-0.dtd"
   xmlns:inkscape="http://www.inkscape.org/namespaces/inkscape"
   version="1.1"
   x="0px"
   y="0px"
   viewBox="0 0 139.83051 139.8305"
   enable-background="new 0 0 100 100"
   xml:space="preserve"
   id="svg10"
   sodipodi:docname="match.svg"
   width="139.83051"
   height="139.83051"
   inkscape:version="0.92.5 (2060ec1f9f, 2020-04-08)"><metadata
     id="metadata16"><rdf:RDF><cc:Work
         rdf:about=""><dc:format>image/svg+xml</dc:format><dc:type
           rdf:resource="http://purl.org/dc/dcmitype/StillImage" /><dc:title></dc:title></cc:Work></rdf:RDF></metadata><defs
     id="defs14" /><sodipodi:namedview
     pagecolor="#ffffff"
     bordercolor="#666666"
     borderopacity="1"
     objecttolerance="10"
     gridtolerance="10"
     guidetolerance="10"
     inkscape:pageopacity="0"
     inkscape:pageshadow="2"
     inkscape:window-width="1920"
     inkscape:window-height="1011"
     id="namedview12"
     showgrid="false"
     fit-margin-top="0"
     fit-margin-left="0"
     fit-margin-right="0"
     fit-margin-bottom="0"
     inkscape:zoom="3.776"
     inkscape:cx="64.507809"
     inkscape:cy="79.353619"
     inkscape:window-x="0"
     inkscape:window-y="0"
     inkscape:window-maximized="1"
     inkscape:current-layer="svg10" /><g
     id="g827"
     transform="matrix(-1.0945811,0,0,1.0945811,111.57871,21.40148)"><path
       inkscape:connector-curvature="0"
       id="path2"
       d="m 77.698929,54 c -7.117,-2.751 -12.38,-7.332 -17.699,-18 -7.554,2.47 -10.824,9.265 -14.591,14.824 -13.714,-24.964 -4.575,-40.236 19.374,-50.824 3.128,19.654 24.218,21.143 12.916,54 z" /><path
       inkscape:connector-curvature="0"
       id="path4"
       d="m 71.447929,60.508 c -1.96,-5.316 -8.672,-7.89 -14.958,-5.739 -4.648,1.592 -8.394,5.565 -8.455,10.504 L 2.1919292,78.111 c -1.59499998,0.447 -2.52699998,2.102 -2.07999998,3.697 0.448,1.601 2.10999998,2.529 3.69699998,2.08 L 49.969929,70.961 c 2.838,3.566 8.286,5.062 13.54,3.27 6.311,-2.162 9.951,-8.253 7.938,-13.723 z" /></g></svg>