<?xml version="1.0" encoding="UTF-8" standalone="no"?>
<svg
   xmlns:dc="http://purl.org/dc/elements/1.1/"
   xmlns:cc="http://creativecommons.org/ns#"
   xmlns:rdf="http://www.w3.org/1999/02/22-rdf-syntax-ns#"
   xmlns:svg="http://www.w3.org/2000/svg"
   xmlns="http://www.w3.org/2000/svg"
   xmlns:sodipodi="http://sodipodi.sourceforge.net/DTD/sodipodi-0.dtd"
   xmlns:inkscape="http://www.inkscape.org/namespaces/inkscape"
   viewBox="0 0 128 128"
   x="0px"
   y="0px"
   version="1.1"
   id="svg12"
   sodipodi:docname="settings.svg"
   width="128"
   height="128"
   inkscape:version="0.92.5 (2060ec1f9f, 2020-04-08)">
  <metadata
     id="metadata18">
    <rdf:RDF>
      <cc:Work
         rdf:about="">
        <dc:format>image/svg+xml</dc:format>
        <dc:type
           rdf:resource="http://purl.org/dc/dcmitype/StillImage" />
        <dc:title>setting, option, gear, configuration, enterprice_1</dc:title>
      </cc:Work>
    </rdf:RDF>
  </metadata>
  <defs
     id="defs16" />
  <sodipodi:namedview
     pagecolor="#ffffff"
     bordercolor="#666666"
     borderopacity="1"
     objecttolerance="10"
     gridtolerance="10"
     guidetolerance="10"
     inkscape:pageopacity="0"
     inkscape:pageshadow="2"
     inkscape:window-width="1920"
     inkscape:window-height="1011"
     id="namedview14"
     showgrid="false"
     inkscape:zoom="4.17193"
     inkscape:cx="55.871994"
     inkscape:cy="52.849145"
     inkscape:window-x="0"
     inkscape:window-y="0"
     inkscape:window-maximized="1"
     inkscape:current-layer="svg12" />
  <title
     id="title2">setting, option, gear, configuration, enterprice_1</title>
  <g
     data-name="Layer 2"
     id="g6"
     transform="matrix(3.0251975,0,0,3.0251975,15.596873,15.575344)">
    <path
       d="M 29.21,11.84 A 3.92,3.92 0 0 1 26.12,6.54 1.84,1.84 0 0 0 25.57,4.47 14.75,14.75 0 0 0 21.17,1.92 1.85,1.85 0 0 0 19.08,2.5 3.91,3.91 0 0 1 12.92,2.5 1.85,1.85 0 0 0 10.83,1.92 14.82,14.82 0 0 0 6.73,4.22 1.86,1.86 0 0 0 6.15,6.35 3.9,3.9 0 0 1 2.9,11.71 1.85,1.85 0 0 0 1.28,13.2 14.14,14.14 0 0 0 1,16 14.32,14.32 0 0 0 1.19,18.35 1.85,1.85 0 0 0 2.82,19.9 3.9,3.9 0 0 1 6,25.41 a 1.82,1.82 0 0 0 0.51,2.18 14.86,14.86 0 0 0 4.36,2.51 2,2 0 0 0 0.63,0.11 1.84,1.84 0 0 0 1.5,-0.78 3.87,3.87 0 0 1 3.2,-1.68 3.92,3.92 0 0 1 3.14,1.58 1.84,1.84 0 0 0 2.16,0.61 15,15 0 0 0 4,-2.39 1.85,1.85 0 0 0 0.54,-2.11 3.9,3.9 0 0 1 3.13,-5.39 1.85,1.85 0 0 0 1.57,-1.52 A 14.5,14.5 0 0 0 31,16 14.35,14.35 0 0 0 30.75,13.33 1.83,1.83 0 0 0 29.21,11.84 Z M 21,16 a 5,5 0 1 1 -5,-5 5,5 0 0 1 5,5 z"
       id="path4"
       inkscape:connector-curvature="0" />
  </g>
</svg>
