<?xml version="1.0" encoding="UTF-8" standalone="no"?>
<svg
   xmlns:dc="http://purl.org/dc/elements/1.1/"
   xmlns:cc="http://creativecommons.org/ns#"
   xmlns:rdf="http://www.w3.org/1999/02/22-rdf-syntax-ns#"
   xmlns:svg="http://www.w3.org/2000/svg"
   xmlns="http://www.w3.org/2000/svg"
   xmlns:sodipodi="http://sodipodi.sourceforge.net/DTD/sodipodi-0.dtd"
   xmlns:inkscape="http://www.inkscape.org/namespaces/inkscape"
   version="1.1"
   x="0px"
   y="0px"
   viewBox="0 0 1133.9 1133.9"
   xml:space="preserve"
   id="svg26"
   sodipodi:docname="sofa.svg"
   width="1133.9"
   height="1133.9"
   inkscape:version="0.92.5 (2060ec1f9f, 2020-04-08)"><metadata
     id="metadata32"><rdf:RDF><cc:Work
         rdf:about=""><dc:format>image/svg+xml</dc:format><dc:type
           rdf:resource="http://purl.org/dc/dcmitype/StillImage" /><dc:title></dc:title></cc:Work></rdf:RDF></metadata><defs
     id="defs30" /><sodipodi:namedview
     pagecolor="#ffffff"
     bordercolor="#666666"
     borderopacity="1"
     objecttolerance="10"
     gridtolerance="10"
     guidetolerance="10"
     inkscape:pageopacity="0"
     inkscape:pageshadow="2"
     inkscape:window-width="1920"
     inkscape:window-height="1011"
     id="namedview28"
     showgrid="false"
     fit-margin-top="0"
     fit-margin-left="0"
     fit-margin-right="0"
     fit-margin-bottom="0"
     inkscape:zoom="0.53400704"
     inkscape:cx="401.1699"
     inkscape:cy="700.46694"
     inkscape:window-x="0"
     inkscape:window-y="0"
     inkscape:window-maximized="1"
     inkscape:current-layer="svg26" /><g
     id="g14"
     transform="matrix(1.4064941,0,0,1.4064941,-394.52158,-1034.9764)"><path
       d="m 1086.689,1141.8 c 0,-18.6 -15.1,-33.7 -33.7,-33.7 h -34.5 -20.80004 c -18.6,0 -33.7,15.1 -33.7,33.7 v 137.7 41.9 h 89.00004 c 18.6,0 33.7,-15.1 33.7,-33.7 z"
       id="path2"
       inkscape:connector-curvature="0" /><path
       d="m 377.3,1084.5 c 0.4,0 0.7,0.1 1.1,0.1 0.7,0.1 1.3,0.2 2,0.4 0.3,0.1 0.5,0.1 0.8,0.1 1.9,0.4 3.7,0.9 5.5,1.4 0.2,0.1 0.4,0.1 0.6,0.2 0.7,0.2 1.4,0.4 2,0.7 0.3,0.1 0.6,0.2 0.9,0.3 0.6,0.2 1.2,0.4 1.7,0.7 0.3,0.1 0.6,0.3 0.9,0.4 0.5,0.2 1.1,0.5 1.6,0.7 0.3,0.2 0.6,0.3 1,0.5 0.5,0.3 1,0.5 1.5,0.8 0.3,0.2 0.6,0.4 1,0.5 0.5,0.3 1,0.5 1.4,0.8 0.3,0.2 0.6,0.4 1,0.6 0.5,0.3 0.9,0.6 1.4,0.9 0.3,0.2 0.6,0.4 1,0.7 0.4,0.3 0.9,0.6 1.3,0.9 0.3,0.2 0.6,0.5 0.9,0.7 0.4,0.3 0.8,0.6 1.2,1 0.3,0.2 0.6,0.5 0.9,0.8 0.4,0.3 0.8,0.7 1.2,1 0.3,0.3 0.6,0.5 0.9,0.8 0.4,0.3 0.7,0.7 1.1,1.1 0.3,0.3 0.6,0.6 0.8,0.9 0.4,0.4 0.7,0.7 1.1,1.1 0.3,0.3 0.5,0.6 0.8,0.9 0.3,0.4 0.7,0.8 1,1.1 0.3,0.3 0.5,0.6 0.8,0.9 0.3,0.4 0.6,0.8 0.9,1.2 0.2,0.3 0.5,0.7 0.7,1 0.3,0.4 0.6,0.8 0.9,1.2 0.2,0.3 0.5,0.7 0.7,1 0.3,0.4 0.5,0.8 0.8,1.3 0.2,0.4 0.4,0.7 0.6,1.1 0.3,0.4 0.5,0.9 0.8,1.3 0.2,0.4 0.4,0.7 0.6,1.1 0.2,0.4 0.5,0.9 0.7,1.3 0.2,0.4 0.4,0.7 0.6,1.1 0.2,0.5 0.4,0.9 0.6,1.4 0.2,0.4 0.3,0.8 0.5,1.1 0.2,0.5 0.4,0.9 0.6,1.4 0.2,0.4 0.3,0.8 0.4,1.2 0.2,0.5 0.3,1 0.5,1.5 0.1,0.4 0.3,0.8 0.4,1.2 0.2,0.5 0.3,1 0.4,1.5 0.1,0.4 0.2,0.8 0.3,1.2 0.1,0.5 0.2,1 0.4,1.6 0.1,0.4 0.2,0.8 0.3,1.2 0.1,0.5 0.2,1.1 0.3,1.6 0.1,0.4 0.1,0.8 0.2,1.2 0.1,0.6 0.1,1.1 0.2,1.7 0,0.4 0.1,0.8 0.1,1.1 0.1,0.6 0.1,1.3 0.1,1.9 0,0.3 0.1,0.6 0.1,1 0,1 0.1,1.9 0.1,2.9 v 50.8 H 671.9 V 956.4 H 406.6 c -18.6,0 -33.7,15.1 -33.7,33.7 v 94 c 0.5,0 1,0.1 1.4,0.1 0.4,0 0.8,0.1 1.2,0.1 0.7,0 1.3,0.1 1.8,0.2 z"
       id="path4"
       inkscape:connector-curvature="0" /><path
       d="m 963.39792,956.4 h -265.3 v 236.3 h 244.4 v -50.8 c 0,-1 0,-2 0.1,-2.9 0,-0.3 0,-0.6 0.1,-1 0,-0.6 0.1,-1.3 0.1,-1.9 0,-0.4 0.1,-0.8 0.1,-1.1 0.1,-0.6 0.1,-1.1 0.2,-1.7 0.1,-0.4 0.1,-0.8 0.2,-1.2 0.1,-0.5 0.2,-1.1 0.3,-1.6 0.1,-0.4 0.2,-0.8 0.3,-1.2 0.1,-0.5 0.2,-1 0.4,-1.6 0.1,-0.4 0.2,-0.8 0.3,-1.2 0.1,-0.5 0.3,-1 0.4,-1.5 0.1,-0.4 0.3,-0.8 0.4,-1.2 0.2,-0.5 0.3,-1 0.5,-1.5 0.1,-0.4 0.3,-0.8 0.4,-1.2 0.2,-0.5 0.4,-1 0.6,-1.4 0.2,-0.4 0.3,-0.8 0.5,-1.1 0.2,-0.5 0.4,-0.9 0.6,-1.4 0.2,-0.4 0.4,-0.7 0.6,-1.1 0.2,-0.5 0.5,-0.9 0.7,-1.3 0.2,-0.4 0.4,-0.7 0.6,-1.1 0.2,-0.4 0.5,-0.9 0.8,-1.3 0.2,-0.4 0.4,-0.7 0.7,-1.1 0.3,-0.4 0.5,-0.8 0.8,-1.3 0.2,-0.3 0.5,-0.7 0.7,-1 0.3,-0.4 0.6,-0.8 0.9,-1.2 0.2,-0.3 0.5,-0.7 0.7,-1 0.3,-0.4 0.6,-0.8 0.9,-1.2 0.3,-0.3 0.5,-0.6 0.8,-0.9 0.3,-0.4 0.7,-0.8 1,-1.2 0.3,-0.3 0.5,-0.6 0.8,-0.9 0.3,-0.4 0.7,-0.7 1.1,-1.1 0.3,-0.3 0.6,-0.6 0.8,-0.9 0.4,-0.4 0.7,-0.7 1.1,-1.1 0.3,-0.3 0.6,-0.5 0.9,-0.8 0.4,-0.3 0.8,-0.7 1.2,-1 0.3,-0.3 0.6,-0.5 0.9,-0.8 0.4,-0.3 0.8,-0.6 1.2,-1 0.3,-0.2 0.6,-0.5 0.9,-0.7 0.4,-0.3 0.9,-0.6 1.3,-0.9 0.3,-0.2 0.6,-0.4 1,-0.7 0.4,-0.3 0.9,-0.6 1.4,-0.9 0.3,-0.2 0.6,-0.4 1,-0.6 0.5,-0.3 0.9,-0.5 1.4,-0.8 0.3,-0.2 0.6,-0.4 1,-0.5 0.5,-0.3 1,-0.5 1.5,-0.8 0.3,-0.2 0.6,-0.3 1,-0.5 0.5,-0.3 1.1,-0.5 1.6,-0.7 0.3,-0.1 0.6,-0.3 0.9,-0.4 0.6,-0.2 1.2,-0.5 1.7,-0.7 0.3,-0.1 0.6,-0.2 0.9,-0.3 0.7,-0.2 1.4,-0.5 2,-0.7 0.2,-0.1 0.4,-0.1 0.6,-0.2 1.8,-0.6 3.6,-1 5.5,-1.4 0.3,-0.1 0.5,-0.1 0.8,-0.1 0.7,-0.1 1.3,-0.3 2,-0.4 0.4,-0.1 0.7,-0.1 1.1,-0.1 0.6,-0.1 1.2,-0.2 1.7,-0.2 0.4,0 0.8,-0.1 1.2,-0.1 0.5,0 1,-0.1 1.4,-0.1 v -94 c 0,-18.6 -15.1,-33.7 -33.7,-33.7 z"
       id="path6"
       inkscape:connector-curvature="0" /><polygon
       points="696.1,1216.9 673.8,1216.9 427.7,1216.9 427.7,1279.5 427.7,1321.4 1266.9,1321.4 1266.9,1279.5 1266.9,1216.9 1021.2,1216.9 998.8,1216.9 "
       id="polygon8"
       transform="matrix(0.61395881,0,0,1,165.10982,0)" /><path
       d="m 314.2,1108.2 c -18.6,0 -33.7,15.1 -33.7,33.7 v 145.9 c 0,18.6 15.1,33.7 33.7,33.7 h 89 v -41.9 -137.7 c 0,-18.6 -15.1,-33.7 -33.7,-33.7 h -20.8 z"
       id="path10"
       inkscape:connector-curvature="0" /></g></svg>