<?xml version="1.0" encoding="UTF-8" standalone="no"?>
<svg
   version="1.1"
   x="0px"
   y="0px"
   viewBox="-949 951 95.400002 70.263161"
   xml:space="preserve"
   id="svg20"
   sodipodi:docname="speaker-off.svg"
   width="95.400002"
   height="70.263161"
   inkscape:version="1.1.2 (0a00cf5339, 2022-02-04)"
   xmlns:inkscape="http://www.inkscape.org/namespaces/inkscape"
   xmlns:sodipodi="http://sodipodi.sourceforge.net/DTD/sodipodi-0.dtd"
   xmlns="http://www.w3.org/2000/svg"
   xmlns:svg="http://www.w3.org/2000/svg"><defs
     id="defs24" /><sodipodi:namedview
     id="namedview22"
     pagecolor="#505050"
     bordercolor="#eeeeee"
     borderopacity="1"
     inkscape:pageshadow="0"
     inkscape:pageopacity="0"
     inkscape:pagecheckerboard="0"
     showgrid="false"
     fit-margin-top="0"
     fit-margin-left="0"
     fit-margin-right="0"
     fit-margin-bottom="0"
     inkscape:zoom="6.6"
     inkscape:cx="46.818182"
     inkscape:cy="35.30303"
     inkscape:window-width="1920"
     inkscape:window-height="1011"
     inkscape:window-x="0"
     inkscape:window-y="0"
     inkscape:window-maximized="1"
     inkscape:current-layer="svg20" /><path
     d="m -907.9,951.68156 -23.3,19.1 -13,1.2 c -2.7,0.3 -4.8,2.5 -4.8,5.3 v 17.7 c 0,2.7 2.1,5 4.8,5.30004 l 13,1.2 23.3,19.1 c 1.9,1.6 4.8,0.2 4.8,-2.3 v -64.30004 c -0.1,-2.5 -2.9,-3.9 -4.8,-2.3 z"
     id="path2" /><path
     d="m -885.4,975.08156 c -1.3,-2.2 -4.3,-2.7 -6.3,-1 l -0.3,0.2 c -1.4,1.2 -1.8,3.3 -0.9,4.9 1.1,2 1.8,4.3 1.8,6.8 0,2.5 -0.7,4.8 -1.8,6.8 -0.9,1.6 -0.5,3.7 0.9,4.9 l 0.3,0.2 c 1.9,1.7 5,1.3 6.3,-1 1.8,-3.2 2.9,-7 2.9,-11 0,-3.8 -1.1,-7.5 -2.9,-10.8 z"
     id="path4"
     style="fill:none;stroke:#000000;stroke-opacity:1" /><path
     d="m -874.9,965.18156 c -1.4,-2 -4.3,-2.3 -6.1,-0.7 l -0.2,0.2 c -1.5,1.4 -1.8,3.7 -0.6,5.4 3.2,4.5 5,10.1 5,16 0,6 -1.9,11.5 -5,16.00004 -1.2,1.7 -0.9,4 0.6,5.4 l 0.2,0.2 c 1.8,1.6 4.7,1.3 6.1,-0.7 4.2,-5.9 6.6,-13.10004 6.6,-20.90004 0,-7.8 -2.4,-15 -6.6,-20.9 z"
     id="path6"
     style="fill:none;stroke:#000000;stroke-opacity:1" /><path
     d="m -864.4,955.48156 c -1.5,-1.9 -4.2,-2.2 -6,-0.6 l -0.3,0.2 c -1.6,1.4 -1.8,3.8 -0.5,5.5 5.4,7.1 8.5,15.9 8.5,25.4 0,9.5 -3.2,18.40004 -8.5,25.40004 -1.3,1.7 -1.1,4.1 0.5,5.5 l 0.3,0.2 c 1.8,1.6 4.5,1.3 6,-0.6 6.5,-8.5 10.3,-19.10004 10.3,-30.60004 0,-11.3 -3.8,-21.9 -10.3,-30.4 z"
     id="path8"
     style="fill:none;stroke:#000000;stroke-opacity:1" /></svg>
