<?xml version="1.0" encoding="UTF-8" standalone="no"?>
<svg
   xmlns:dc="http://purl.org/dc/elements/1.1/"
   xmlns:cc="http://creativecommons.org/ns#"
   xmlns:rdf="http://www.w3.org/1999/02/22-rdf-syntax-ns#"
   xmlns:svg="http://www.w3.org/2000/svg"
   xmlns="http://www.w3.org/2000/svg"
   xmlns:sodipodi="http://sodipodi.sourceforge.net/DTD/sodipodi-0.dtd"
   xmlns:inkscape="http://www.inkscape.org/namespaces/inkscape"
   viewBox="0 0 256 256"
   version="1.1"
   x="0px"
   y="0px"
   id="svg16"
   sodipodi:docname="stopwatch.svg"
   width="256"
   height="256"
   inkscape:version="0.92.5 (2060ec1f9f, 2020-04-08)">
  <metadata
     id="metadata22">
    <rdf:RDF>
      <cc:Work
         rdf:about="">
        <dc:format>image/svg+xml</dc:format>
        <dc:type
           rdf:resource="http://purl.org/dc/dcmitype/StillImage" />
        <dc:title></dc:title>
      </cc:Work>
    </rdf:RDF>
  </metadata>
  <defs
     id="defs20" />
  <sodipodi:namedview
     pagecolor="#ffffff"
     bordercolor="#666666"
     borderopacity="1"
     objecttolerance="10"
     gridtolerance="10"
     guidetolerance="10"
     inkscape:pageopacity="0"
     inkscape:pageshadow="2"
     inkscape:window-width="1920"
     inkscape:window-height="1011"
     id="namedview18"
     showgrid="false"
     inkscape:zoom="1.8582677"
     inkscape:cx="116.78573"
     inkscape:cy="116.93145"
     inkscape:window-x="0"
     inkscape:window-y="0"
     inkscape:window-maximized="1"
     inkscape:current-layer="svg16" />
  <g
     transform="matrix(21.991717,0,0,21.991717,-11.647484,-6263.8915)"
     id="g10">
    <path
       style="fill:#000000;stroke:none"
       d="m 5.2100068,284.82958 a 0.43391169,0.43391169 0 0 0 0,0.86765 h 0.7120996 v 0.93173 a 4.9303868,4.9303868 0 0 0 -2.3724658,0.85369 l -0.4640528,-0.45837 a 0.57025677,0.57025677 0 0 0 -0.7808383,-0.0202 6.0778053,6.0778053 0 0 0 -0.3581135,0.34778 0.57025677,0.57025677 0 0 0 0.012435,0.79789 l 0.4423304,0.43769 a 4.9303868,4.9303868 0 1 0 7.8972046,0 l 0.442357,-0.43769 a 0.57025677,0.57025677 0 0 0 0.01296,-0.79789 6.0778053,6.0778053 0 0 0 -0.358643,-0.34778 0.57025677,0.57025677 0 0 0 -0.7803091,0.0202 l -0.4640527,0.45837 a 4.9303868,4.9303868 0 0 0 -2.3734977,-0.85369 v -0.93173 h 0.7120996 a 0.43391169,0.43391169 0 0 0 0,-0.86765 z m 1.0422996,2.61586 a 4.0750019,4.0750019 0 0 1 4.1723736,4.09536 4.0750019,4.0750019 0 1 1 -8.1499078,0 4.0750019,4.0750019 0 0 1 3.9775342,-4.09536 z"
       id="path2"
       inkscape:connector-curvature="0" />
    <path
       style="fill:#000000;stroke:none"
       d="M 4.86425,289.83225 4.25662,289.22461 A 0.15746815,0.15746815 0 0 0 4.034,289.44723 l 0.60764,0.60763 a 0.15746816,0.15746816 0 0 0 0.22261,-0.22261 z"
       id="path4"
       inkscape:connector-curvature="0" />
    <path
       style="fill:#000000;stroke:none"
       d="m 4.09141,291.69786 a 0.15746815,0.15746815 0 0 0 0,-0.31432 H 3.23245 a 0.15746815,0.15746815 0 0 0 0,0.31432 z"
       id="path6"
       inkscape:connector-curvature="0" />
    <path
       style="fill:#000000;stroke:none"
       d="m 3.90169,293.71679 a 3.2751562,3.2751562 0 1 0 2.44805,-5.45123 v 3.27549 z"
       id="path8"
       inkscape:connector-curvature="0" />
  </g>
</svg>
