<?xml version="1.0" encoding="UTF-8" standalone="no"?>
<svg
   xmlns:dc="http://purl.org/dc/elements/1.1/"
   xmlns:cc="http://creativecommons.org/ns#"
   xmlns:rdf="http://www.w3.org/1999/02/22-rdf-syntax-ns#"
   xmlns:svg="http://www.w3.org/2000/svg"
   xmlns="http://www.w3.org/2000/svg"
   xmlns:sodipodi="http://sodipodi.sourceforge.net/DTD/sodipodi-0.dtd"
   xmlns:inkscape="http://www.inkscape.org/namespaces/inkscape"
   version="1.1"
   x="0px"
   y="0px"
   viewBox="0 0 73.520813 73.520813"
   enable-background="new 0 0 100 100"
   xml:space="preserve"
   id="svg10"
   sodipodi:docname="switch.svg"
   width="73.520813"
   height="73.520813"
   inkscape:version="0.92.5 (2060ec1f9f, 2020-04-08)"><metadata
     id="metadata16"><rdf:RDF><cc:Work
         rdf:about=""><dc:format>image/svg+xml</dc:format><dc:type
           rdf:resource="http://purl.org/dc/dcmitype/StillImage" /><dc:title></dc:title></cc:Work></rdf:RDF></metadata><defs
     id="defs14" /><sodipodi:namedview
     pagecolor="#ffffff"
     bordercolor="#666666"
     borderopacity="1"
     objecttolerance="10"
     gridtolerance="10"
     guidetolerance="10"
     inkscape:pageopacity="0"
     inkscape:pageshadow="2"
     inkscape:window-width="1920"
     inkscape:window-height="1011"
     id="namedview12"
     showgrid="false"
     inkscape:zoom="2.6700352"
     inkscape:cx="-74.304274"
     inkscape:cy="7.8016691"
     inkscape:window-x="0"
     inkscape:window-y="0"
     inkscape:window-maximized="1"
     inkscape:current-layer="svg10"
     fit-margin-top="0"
     fit-margin-left="0"
     fit-margin-right="0"
     fit-margin-bottom="0" /><g
     id="g827"
     transform="matrix(0.81689796,0,0,0.81689796,-4.0844898,-6.5351837)"><path
       inkscape:connector-curvature="0"
       id="path2"
       d="m 87.5,8 h -75 C 8.4,8 5,11.4 5,15.5 v 75 c 0,4.1 3.4,7.5 7.5,7.5 h 75 c 4.1,0 7.5,-3.4 7.5,-7.5 v -75 C 95,11.4 91.6,8 87.5,8 Z M 90,90.5 c 0,1.4 -1.1,2.5 -2.5,2.5 h -75 C 11.1,93 10,91.9 10,90.5 v -75 C 10,14.1 11.1,13 12.5,13 h 75 c 1.4,0 2.5,1.1 2.5,2.5 z" /><path
       inkscape:connector-curvature="0"
       id="path4"
       d="m 68.7,35.4 c 0,-0.1 0,-0.2 -0.1,-0.3 0,0 0,-0.1 0,-0.1 -0.1,-0.1 -0.1,-0.3 -0.2,-0.4 0,0 0,0 0,0 L 60.9,27.1 C 60.7,26.9 60.3,26.7 60,26.7 H 40 c -0.2,0 -0.3,0 -0.5,0.1 -0.3,0.1 -0.5,0.4 -0.7,0.7 -0.1,0.2 -0.1,0.3 -0.1,0.5 v 50 c 0,0.7 0.6,1.3 1.3,1.3 h 20 c 0.7,0 1.3,-0.6 1.3,-1.3 V 53.3 L 68.6,36 c 0,0 0,0 0,0 0,0 0,0 0,0 0.1,-0.1 0.1,-0.3 0.1,-0.4 0,-0.1 0.1,-0.1 0,-0.2 0.1,0.1 0,0.1 0,0 z M 59.2,51.8 H 41.9 l 6.4,-15 H 65.6 Z M 46,35.8 41.2,46.9 V 31 Z M 64.5,34.3 H 48 l -5,-5 H 59.5 Z M 41.3,76.8 V 54.3 h 17.5 v 22.5 z" /></g></svg>